<svg version="1.1" id="Layer_1" xmlns="http://www.w3.org/2000/svg" xmlns:xlink="http://www.w3.org/1999/xlink" x="0px" y="0px"
	 width="100%" viewBox="0 0 174 174" enable-background="new 0 0 174 174" xml:space="preserve">
<path fill="#FFFFFD" opacity="1.000000" stroke="none" 
	d="
M175.000000,58.000000 
	C175.000000,97.333336 175.000000,136.166672 175.000000,175.000000 
	C117.000000,175.000000 59.000000,175.000000 1.000000,175.000000 
	C1.000000,117.000000 1.000000,59.000000 1.000000,1.000000 
	C59.000000,1.000000 117.000000,1.000000 175.000000,1.000000 
	C175.000000,19.833334 175.000000,38.666668 175.000000,58.000000 
M113.960396,28.990519 
	C113.960396,28.990519 113.941444,29.073294 113.980347,28.306223 
	C113.308022,27.211361 112.635696,26.116499 111.997635,24.997372 
	C111.997635,24.997372 111.975967,25.032555 111.993553,24.268847 
	C111.305283,23.194370 110.617004,22.119892 109.947746,21.025198 
	C109.947746,21.025198 109.932175,21.060757 109.994408,20.281929 
	C111.349052,19.512278 112.703697,18.742626 114.781601,17.996105 
	C117.187515,18.320919 119.593422,18.645735 122.022743,19.706829 
	C124.347359,21.473871 126.671967,23.240913 129.301514,25.607094 
	C130.839310,26.725496 132.377106,27.843899 134.035370,29.049927 
	C137.004150,25.379650 135.359222,23.865269 131.906693,22.314486 
	C128.594131,20.554632 125.281563,18.794779 121.355415,16.713459 
	C118.233818,15.481952 115.112221,14.250445 111.363815,12.718585 
	C109.236534,11.831395 107.109253,10.944205 104.274483,9.728762 
	C100.516739,9.197572 96.758995,8.666381 92.079727,8.028336 
	C88.064514,8.136015 84.049301,8.243695 79.235046,8.308155 
	C72.832802,9.843740 66.164238,10.685421 60.070286,13.024284 
	C9.661279,32.371288 -5.495757,94.675819 28.425507,135.429764 
	C34.348652,142.546005 41.074226,149.264160 48.979176,153.533127 
	C56.838932,157.777725 66.252953,159.144241 75.485207,161.960907 
	C75.661400,161.935577 75.837593,161.910248 76.478165,162.011185 
	C76.478165,162.011185 76.957069,162.058502 77.294136,162.456177 
	C77.904747,162.375717 78.515366,162.295258 79.942070,162.257126 
	C81.302116,162.321960 82.662170,162.386795 84.713783,162.815628 
	C88.440346,162.665039 92.166908,162.514435 96.641838,162.596756 
	C101.113785,161.427170 105.585732,160.257584 110.816895,159.073166 
	C113.236008,158.080048 115.655121,157.086945 118.806160,156.057663 
	C121.193459,155.021286 123.580765,153.984909 126.583672,152.694992 
	C128.386261,151.461212 130.188843,150.227448 132.608002,148.699631 
	C134.044250,146.981445 137.373260,145.976913 134.955093,142.905350 
	C134.788376,142.693558 132.371811,144.253006 130.300034,145.064911 
	C128.200485,146.377213 126.100945,147.689529 123.304192,149.077957 
	C121.168549,150.339569 119.032906,151.601181 116.150879,152.948044 
	C114.099586,153.655319 112.048294,154.362595 109.204475,155.130722 
	C100.797501,156.099167 92.390533,157.067612 83.305748,157.960678 
	C81.835777,157.938904 80.365807,157.917130 78.302498,157.745453 
	C77.694000,157.700409 77.085503,157.655365 76.068840,157.237411 
	C75.710342,157.191040 75.351837,157.144669 74.310127,156.948837 
	C73.382797,156.879578 72.455467,156.810318 70.975334,156.186203 
	C67.762291,153.827560 70.903084,152.689896 71.961319,151.192032 
	C74.489471,147.613602 80.024757,145.973175 79.810997,140.149002 
	C81.154480,139.325562 82.904724,138.804337 83.776779,137.630630 
	C90.462204,128.632614 97.412010,119.781082 103.363007,110.308182 
	C106.388969,105.491402 110.028610,103.451271 115.034081,104.220062 
	C118.829895,104.803055 120.629135,103.900475 121.721130,100.250137 
	C131.716690,96.550331 139.693192,90.720459 143.145676,79.569695 
	C143.145676,79.569695 143.065735,79.112656 143.591690,78.793587 
	C144.068497,78.198448 144.545303,77.603310 145.566483,76.621765 
	C148.257843,74.153969 150.949188,71.686180 153.650009,69.209709 
	C152.249161,68.208038 150.695694,67.389610 149.515213,66.200813 
	C145.199860,61.855053 140.300934,60.802292 134.575012,63.320015 
	C132.004944,64.450096 129.518143,65.769554 126.321083,66.948738 
	C125.521011,66.701927 124.720940,66.455116 123.840004,65.721695 
	C123.712769,65.402229 123.495712,65.164986 122.965118,64.377907 
	C122.907356,63.935837 122.849594,63.493767 123.419281,62.596817 
	C122.582619,57.330215 122.001282,52.004257 120.796783,46.823170 
	C120.232338,44.395233 118.465706,42.246780 117.134987,39.238773 
	C117.087540,38.499439 117.040100,37.760109 116.991524,36.444099 
	C116.714584,35.969990 116.437653,35.495880 115.995667,34.570904 
	C115.995667,34.570904 115.972633,34.091320 115.880783,33.692726 
	C115.777138,33.430862 115.605667,33.225712 115.098618,32.440601 
	C115.005508,31.990530 114.912399,31.540457 115.332733,30.756908 
	C114.857956,30.190516 114.383179,29.624123 113.960396,28.990519 
z"/>
<path fill="#D2A44C" opacity="1.000000" stroke="none" 
	d="
M71.528137,156.741058 
	C72.455467,156.810318 73.382797,156.879578 74.842476,157.235596 
	C75.742218,157.551666 76.109612,157.580994 76.477005,157.610321 
	C77.085503,157.655365 77.694000,157.700409 78.934799,158.005447 
	C81.049545,158.503586 82.531982,158.741714 84.007668,158.989716 
	C84.000916,158.999588 84.020401,158.984863 84.010483,159.415771 
	C84.007782,160.714996 84.014999,161.583313 84.022217,162.451614 
	C82.662170,162.386795 81.302116,162.321960 79.182617,162.119095 
	C77.934464,162.006866 77.445770,162.032684 76.957069,162.058502 
	C76.957069,162.058502 76.478165,162.011185 76.159027,161.794800 
	C75.555069,161.643204 75.270241,161.708008 74.985413,161.772812 
	C66.252953,159.144241 56.838932,157.777725 48.979176,153.533127 
	C41.074226,149.264160 34.348652,142.546005 28.425507,135.429764 
	C-5.495757,94.675819 9.661279,32.371288 60.070286,13.024284 
	C66.164238,10.685421 72.832802,9.843740 79.914978,8.538467 
	C82.673790,9.222007 85.735291,8.533195 84.430450,12.545458 
	C79.284088,13.436804 74.558060,14.213268 69.480270,15.033264 
	C68.019958,15.898179 66.911407,16.719563 65.575256,17.346527 
	C64.109390,17.368069 62.871105,17.584028 61.460922,17.806881 
	C61.289021,17.813778 60.999138,17.999134 60.659615,18.007545 
	C59.137283,18.638597 57.954483,19.261238 56.563084,19.921400 
	C56.354488,19.958921 55.994610,20.182896 55.741138,20.198885 
	C55.251163,20.446432 55.014664,20.677992 54.569542,20.938135 
	C54.360928,20.966721 53.997860,21.180103 53.752571,21.194233 
	C53.162231,21.322641 52.952339,21.557661 52.920265,21.930782 
	C52.962921,21.948141 52.936111,21.860020 52.637039,21.886539 
	C51.877186,22.263952 51.416401,22.614843 50.975105,22.984287 
	C50.994591,23.002836 50.981419,22.950752 50.688431,22.968266 
	C49.962162,23.343016 49.528873,23.700253 49.062283,24.036180 
	C49.028976,24.014870 49.034988,24.093721 48.776592,24.136393 
	C48.286842,24.430172 48.055485,24.681278 47.548996,24.988338 
	C46.860226,25.403313 46.446583,25.762333 45.780426,26.160286 
	C45.309875,26.450645 45.091846,26.702074 44.594097,27.046133 
	C43.873657,27.526428 43.432938,27.914093 42.787941,28.332054 
	C42.325081,28.516840 42.185909,28.744431 41.918777,29.135193 
	C41.449783,29.488314 41.228168,29.751362 40.759750,30.082542 
	C40.319035,30.421236 40.125130,30.691797 39.962170,30.979515 
	C39.993118,30.996674 39.964867,30.931784 39.708504,31.000538 
	C39.258373,31.352310 39.064602,31.635328 38.917084,31.939243 
	C38.963333,31.960140 38.917843,31.869402 38.665260,31.952751 
	C38.229218,32.328392 38.045761,32.620682 37.909615,32.933685 
	C37.956924,32.954403 37.911018,32.861866 37.658195,32.945446 
	C37.222912,33.322453 37.040447,33.615875 36.906067,33.930534 
	C36.954144,33.951771 36.907013,33.857807 36.654419,33.942146 
	C36.220306,34.320606 36.038792,34.614723 35.905514,34.930283 
	C35.953751,34.951717 35.906223,34.857449 35.653633,34.943062 
	C35.222744,35.325077 35.044441,35.621479 34.911621,35.938881 
	C34.957100,35.959873 34.916630,35.868225 34.663422,35.959839 
	C34.219643,36.347992 34.029076,36.644539 33.628639,37.040581 
	C33.164684,37.346607 33.018257,37.612446 32.749908,38.042408 
	C32.372566,38.439125 32.224808,38.731026 31.814091,39.163960 
	C30.997225,40.117455 30.443317,40.929913 29.653767,41.880623 
	C29.276943,42.345421 29.135763,42.671967 28.997406,42.999256 
	C29.000229,43.000000 28.997698,42.994019 28.787739,43.088707 
	C28.302567,43.384071 28.184982,43.653519 28.097366,44.140514 
	C27.969704,44.289288 27.856728,44.664738 27.616163,44.812782 
	C27.236155,45.301228 27.096708,45.641628 26.980957,45.988110 
	C27.004654,45.994194 26.974789,45.955349 26.767643,46.059631 
	C26.297302,46.378345 26.185778,46.654110 26.099997,47.152248 
	C25.974072,47.313297 25.872845,47.709438 25.648569,47.857658 
	C25.312683,48.336708 25.201075,48.667545 24.988174,49.138527 
	C24.886887,49.278671 24.841602,49.621529 24.606852,49.784019 
	C24.241991,50.295242 24.111881,50.643978 23.991512,50.995872 
	C24.001251,50.999031 23.987093,50.982685 23.720188,51.174194 
	C22.962767,52.575943 22.472250,53.786190 21.887644,55.123959 
	C21.793554,55.251484 21.784348,55.568306 21.531921,55.816200 
	C20.824032,57.370663 20.368567,58.677223 19.828623,60.114365 
	C19.744144,60.244942 19.782415,60.553623 19.531881,60.826698 
	C18.841743,62.730682 18.402142,64.361595 17.882114,66.150131 
	C17.801687,66.307762 17.831161,66.660446 17.585735,66.961700 
	C16.916565,69.840515 16.492823,72.418076 15.976950,75.313293 
	C15.866263,76.070168 15.847709,76.509384 15.599226,77.288559 
	C15.506833,82.250748 15.644369,86.872971 15.696621,91.841782 
	C15.739528,93.125359 15.867719,94.062347 15.945315,95.378883 
	C16.227304,97.187286 16.559889,98.616135 16.890472,100.377777 
	C16.983850,101.142677 17.079227,101.574783 17.161974,102.292313 
	C17.353533,102.889099 17.557722,103.200470 17.738201,103.769066 
	C17.823038,104.351357 17.931583,104.676422 18.013371,105.361626 
	C18.596157,107.270096 19.205698,108.818413 19.815346,110.538162 
	C19.815451,110.709595 19.995123,111.001617 20.000809,111.344162 
	C20.618120,112.896133 21.229742,114.105576 21.863564,115.496696 
	C21.885765,115.678383 22.089430,115.982574 22.094547,116.308311 
	C22.671883,117.543304 23.244101,118.452553 23.850315,119.538727 
	C23.884312,119.715637 24.102465,120.002380 24.132553,120.265182 
	C24.405745,120.773392 24.648846,121.018784 24.926918,121.464539 
	C24.961889,121.664909 25.187557,122.003372 25.209854,122.243851 
	C25.362932,122.812195 25.600945,123.013039 25.961185,123.044617 
	C25.976187,123.002373 25.908564,123.061241 25.949593,123.374481 
	C26.621933,124.498756 27.253246,125.309784 27.924347,126.076637 
	C27.964134,126.032463 27.852585,126.073624 27.894104,126.359680 
	C28.315819,127.050980 28.696012,127.456230 29.061172,127.902924 
	C29.046141,127.944366 29.133678,127.954948 29.172684,128.202499 
	C29.466709,128.647659 29.721733,128.845276 29.989265,129.022034 
	C30.001772,129.001190 29.957726,129.021667 30.030422,129.275513 
	C30.400255,129.690140 30.697392,129.850922 30.950329,130.094757 
	C30.906132,130.177795 30.862576,130.360825 30.929190,130.638062 
	C31.613897,131.601501 32.231991,132.287689 33.057220,133.242661 
	C36.409229,136.385345 39.554104,139.259232 42.764572,142.352814 
	C42.830166,142.572479 43.000141,142.998413 43.067711,143.160828 
	C43.411362,143.290100 43.687447,143.256943 44.342598,143.179749 
	C45.478653,143.200119 46.235649,143.264511 47.182457,143.506668 
	C47.835903,147.803131 50.316032,148.825638 54.032097,148.329895 
	C55.433662,149.378952 56.802574,150.098709 58.629021,151.059036 
	C58.810562,151.289703 59.467907,152.124939 60.461700,152.992065 
	C62.455387,153.616348 64.112625,154.208755 66.144775,154.889740 
	C68.189171,155.565887 69.858658,156.153473 71.528137,156.741058 
z"/>
<path fill="#FFFEF7" opacity="1.000000" stroke="none" 
	d="
M69.832024,14.989733 
	C74.558060,14.213268 79.284088,13.436804 84.875885,12.698681 
	C88.808601,12.752668 91.875565,12.768314 95.352356,12.874283 
	C97.429810,13.024780 99.097412,13.084953 100.923721,13.338957 
	C101.344429,13.765591 101.650620,13.878676 102.330170,13.920727 
	C103.102005,13.996930 103.544670,14.024450 104.125710,14.310669 
	C106.616875,17.840868 109.415398,14.853069 112.163025,15.369196 
	C112.915337,16.403936 113.486839,17.188454 114.058342,17.972973 
	C112.703697,18.742626 111.349052,19.512278 109.696350,20.470776 
	C108.579330,19.831812 107.760376,19.004004 106.941422,18.176191 
	C106.627541,18.785032 106.313667,19.393875 105.996422,20.465549 
	C106.050110,24.119360 106.107162,27.310341 106.326546,30.622738 
	C106.488876,30.744154 106.611534,31.130583 106.168808,31.097439 
	C105.134453,31.047426 104.542816,31.030560 103.705444,30.844730 
	C102.842453,30.745007 101.710312,30.732101 101.684212,30.895657 
	C101.195343,33.959904 100.837692,37.045086 100.329590,40.424446 
	C99.800179,41.172005 99.393738,41.620995 98.822502,41.798416 
	C98.093147,41.249603 97.528580,40.972351 96.798126,40.426231 
	C88.954933,33.573730 81.277611,26.990095 73.461563,20.103855 
	C72.159225,18.197409 70.995621,16.593571 69.832024,14.989733 
z"/>
<path fill="#FEFBE8" opacity="1.000000" stroke="none" 
	d="
M103.951180,31.013693 
	C104.542816,31.030560 105.134453,31.047426 106.242195,31.411152 
	C107.542229,34.722633 104.100311,39.048519 109.959946,40.766239 
	C109.585915,35.999676 109.233208,31.504866 108.880501,27.010054 
	C109.299965,26.942715 109.719421,26.875374 110.138878,26.808033 
	C111.962021,31.237177 113.769745,35.672981 115.668709,40.069374 
	C115.739410,40.233063 116.698708,40.012936 117.243904,39.971668 
	C118.465706,42.246780 120.232338,44.395233 120.796783,46.823170 
	C122.001282,52.004257 122.582619,57.330215 122.892731,62.545494 
	C121.621964,58.825439 118.490860,59.577122 115.941162,58.853195 
	C115.675621,58.343109 115.437828,58.131519 114.972969,57.680206 
	C112.181877,54.249989 109.550629,51.135052 106.874084,47.684250 
	C105.592796,45.549667 104.356819,43.750942 103.058350,41.626202 
	C102.799187,40.905449 102.602516,40.510715 102.423721,39.774368 
	C102.944794,36.626400 103.447990,33.820045 103.951180,31.013693 
z"/>
<path fill="#D1A246" opacity="1.000000" stroke="none" 
	d="
M121.139526,100.220589 
	C120.629135,103.900475 118.829895,104.803055 115.034081,104.220062 
	C110.028610,103.451271 106.388969,105.491402 103.363007,110.308182 
	C97.412010,119.781082 90.462204,128.632614 83.776779,137.630630 
	C82.904724,138.804337 81.154480,139.325562 79.224907,139.843048 
	C77.434418,139.365128 76.230011,139.193161 75.014801,138.682770 
	C74.997971,137.893265 74.991959,137.442184 75.295212,136.853241 
	C79.381035,133.184937 83.395821,129.867783 86.830345,126.031151 
	C88.467224,124.202629 89.000557,121.386215 90.374924,119.008835 
	C91.612610,118.477287 92.509132,117.954193 93.405655,117.431091 
	C92.133110,116.581787 90.860565,115.732491 89.792908,114.609680 
	C92.007156,112.286987 94.016510,110.237816 96.381012,108.108566 
	C104.393524,104.954453 112.050903,101.880424 120.003708,98.980316 
	C120.579262,99.509689 120.859398,99.865143 121.139526,100.220589 
z"/>
<path fill="#D3A346" opacity="1.000000" stroke="none" 
	d="
M143.065735,79.112656 
	C143.065735,79.112656 143.145676,79.569695 142.718109,79.797615 
	C141.523804,80.020676 140.757065,80.015816 139.994873,80.005745 
	C139.999420,80.000542 139.989243,80.005920 139.979523,79.696350 
	C139.596497,78.940964 139.223206,78.495148 138.573273,77.869415 
	C136.571930,75.991402 135.005524,74.069519 133.055450,72.689980 
	C132.086365,72.004425 130.413132,72.314240 128.790314,72.072083 
	C127.031303,71.257584 125.540405,70.544769 124.089417,69.517181 
	C125.084068,68.469292 126.038803,67.736183 126.993538,67.003067 
	C129.518143,65.769554 132.004944,64.450096 134.575012,63.320015 
	C140.300934,60.802292 145.199860,61.855053 149.515213,66.200813 
	C150.695694,67.389610 152.249161,68.208038 153.650009,69.209709 
	C150.949188,71.686180 148.257843,74.153969 145.012482,76.930107 
	C143.994232,77.863182 143.529984,78.487915 143.065735,79.112656 
z"/>
<path fill="#CFAD6B" opacity="1.000000" stroke="none" 
	d="
M117.189445,39.605221 
	C116.698708,40.012936 115.739410,40.233063 115.668709,40.069374 
	C113.769745,35.672981 111.962021,31.237177 110.138878,26.808033 
	C109.719421,26.875374 109.299965,26.942715 108.880501,27.010054 
	C109.233208,31.504866 109.585915,35.999676 109.959946,40.766239 
	C104.100311,39.048519 107.542229,34.722633 106.684921,31.444296 
	C106.611534,31.130583 106.488876,30.744154 106.592361,30.268690 
	C106.463821,26.529724 106.231812,23.266222 105.999794,20.002720 
	C106.313667,19.393875 106.627541,18.785032 106.941422,18.176191 
	C107.760376,19.004004 108.579330,19.831812 109.665237,20.860189 
	C109.932175,21.060757 109.947746,21.025198 109.988388,21.361187 
	C110.678017,22.808968 111.326988,23.920761 111.975967,25.032555 
	C111.975967,25.032555 111.997635,24.997372 112.021667,25.339069 
	C112.677612,26.811609 113.309532,27.942451 113.941444,29.073294 
	C113.941444,29.073294 113.960396,28.990519 113.957703,29.314209 
	C114.243103,30.122061 114.531189,30.606226 114.819290,31.090387 
	C114.912399,31.540457 115.005508,31.990530 115.235992,32.972977 
	C115.480835,33.794968 115.680588,33.990292 115.972633,34.091320 
	C115.972633,34.091320 115.995667,34.570904 116.056664,35.085449 
	C116.409325,36.073586 116.700996,36.547180 116.992661,37.020775 
	C117.040100,37.760109 117.087540,38.499439 117.189445,39.605221 
z"/>
<path fill="#CFAB64" opacity="1.000000" stroke="none" 
	d="
M139.990341,80.010956 
	C140.757065,80.015816 141.523804,80.020676 142.674255,80.025421 
	C139.693192,90.720459 131.716690,96.550331 121.430328,100.235367 
	C120.859398,99.865143 120.579262,99.509689 120.250229,98.727715 
	C123.421242,96.293625 126.641151,94.286072 130.110321,92.242340 
	C130.902939,91.776100 131.446304,91.346046 132.293625,90.782776 
	C135.061829,87.103371 137.526093,83.557159 139.990341,80.010956 
z"/>
<path fill="#E5CD9C" opacity="1.000000" stroke="none" 
	d="
M110.057678,159.087997 
	C105.585732,160.257584 101.113785,161.427170 96.391357,162.214798 
	C96.621597,161.130676 97.102325,160.428513 98.090698,158.984863 
	C92.807320,158.984863 88.413857,158.984863 84.020401,158.984863 
	C84.020401,158.984863 84.000916,158.999588 84.005463,158.753693 
	C84.010002,158.507812 83.983559,158.036072 83.983559,158.036072 
	C92.390533,157.067612 100.797501,156.099167 109.599083,155.499695 
	C110.015022,156.941772 110.036346,158.014877 110.057678,159.087997 
z"/>
<path fill="#CBA968" opacity="1.000000" stroke="none" 
	d="
M75.025612,139.021194 
	C76.230011,139.193161 77.434418,139.365128 78.848129,139.841949 
	C80.024757,145.973175 74.489471,147.613602 71.961319,151.192032 
	C70.903084,152.689896 67.762291,153.827560 71.251740,156.463623 
	C69.858658,156.153473 68.189171,155.565887 66.353203,154.631256 
	C68.667740,151.494019 71.264977,148.794144 73.551361,145.852646 
	C74.153191,145.078384 76.460411,143.064072 73.118454,142.191010 
	C73.826073,140.903061 74.421532,139.963043 75.012054,139.015717 
	C75.007103,139.008408 75.025612,139.021194 75.025612,139.021194 
z"/>
<path fill="#D9B877" opacity="1.000000" stroke="none" 
	d="
M94.942520,12.783960 
	C91.875565,12.768314 88.808601,12.752668 85.296204,12.583799 
	C85.735291,8.533195 82.673790,9.222007 80.314499,8.560078 
	C84.049301,8.243695 88.064514,8.136015 92.701706,8.365430 
	C93.863289,10.063003 94.402908,11.423482 94.942520,12.783960 
z"/>
<path fill="#DAB874" opacity="1.000000" stroke="none" 
	d="
M84.010483,159.415771 
	C88.413857,158.984863 92.807320,158.984863 98.090698,158.984863 
	C97.102325,160.428513 96.621597,161.130676 96.017166,162.098343 
	C92.166908,162.514435 88.440346,162.665039 84.367996,162.633621 
	C84.014999,161.583313 84.007782,160.714996 84.010483,159.415771 
z"/>
<path fill="#E4C890" opacity="1.000000" stroke="none" 
	d="
M95.352356,12.874283 
	C94.402908,11.423482 93.863289,10.063003 93.162460,8.418858 
	C96.758995,8.666381 100.516739,9.197572 104.628822,10.240549 
	C104.651222,11.852214 104.319275,12.952091 103.987335,14.051970 
	C103.544670,14.024450 103.102005,13.996930 102.183975,13.714951 
	C101.394073,13.355370 101.079552,13.250249 100.765022,13.145128 
	C99.097412,13.084953 97.429810,13.024780 95.352356,12.874283 
z"/>
<path fill="#F8EFE0" opacity="1.000000" stroke="none" 
	d="
M121.968994,17.034924 
	C125.281563,18.794779 128.594131,20.554632 131.684692,22.780092 
	C130.640656,23.833120 129.818619,24.420542 128.996582,25.007959 
	C126.671967,23.240913 124.347359,21.473871 122.010780,19.016140 
	C121.988876,17.895275 121.978935,17.465099 121.968994,17.034924 
z"/>
<path fill="#F3E7CF" opacity="1.000000" stroke="none" 
	d="
M125.968063,152.948532 
	C123.580765,153.984909 121.193459,155.021286 118.412155,155.713089 
	C117.644524,154.533279 117.270897,153.698029 116.897270,152.862793 
	C119.032906,151.601181 121.168549,150.339569 123.956085,149.196869 
	C125.061348,150.526703 125.514709,151.737625 125.968063,152.948532 
z"/>
<path fill="#F0E1C3" opacity="1.000000" stroke="none" 
	d="
M121.662201,16.874191 
	C121.978935,17.465099 121.988876,17.895275 121.999077,18.647999 
	C119.593422,18.645735 117.187515,18.320919 114.419968,17.984539 
	C113.486839,17.188454 112.915337,16.403936 112.169876,15.017867 
	C111.994148,13.950524 111.992386,13.484732 111.990623,13.018938 
	C115.112221,14.250445 118.233818,15.481952 121.662201,16.874191 
z"/>
<path fill="#EDDBB7" opacity="1.000000" stroke="none" 
	d="
M116.524078,152.905426 
	C117.270897,153.698029 117.644524,154.533279 118.046188,155.731171 
	C115.655121,157.086945 113.236008,158.080048 110.437286,159.080582 
	C110.036346,158.014877 110.015022,156.941772 109.995346,155.469269 
	C112.048294,154.362595 114.099586,153.655319 116.524078,152.905426 
z"/>
<path fill="#CEAC69" opacity="1.000000" stroke="none" 
	d="
M126.657310,66.975906 
	C126.038803,67.736183 125.084068,68.469292 123.769775,69.426949 
	C120.952202,66.126381 118.494179,62.601261 116.036156,59.076141 
	C118.490860,59.577122 121.621964,58.825439 122.579002,62.772934 
	C122.849594,63.493767 122.907356,63.935837 123.092720,64.946236 
	C123.453835,65.745811 123.687347,65.977058 123.920868,66.208298 
	C124.720940,66.455116 125.521011,66.701927 126.657310,66.975906 
z"/>
<path fill="#F8EFE0" opacity="1.000000" stroke="none" 
	d="
M126.275864,152.821762 
	C125.514709,151.737625 125.061348,150.526703 124.304688,149.158813 
	C126.100945,147.689529 128.200485,146.377213 130.681061,145.373169 
	C131.371887,146.785507 131.681656,147.889587 131.991440,148.993683 
	C130.188843,150.227448 128.386261,151.461212 126.275864,152.821762 
z"/>
<path fill="#E9D3A7" opacity="1.000000" stroke="none" 
	d="
M111.677216,12.868762 
	C111.992386,13.484732 111.994148,13.950524 111.989067,14.767645 
	C109.415398,14.853069 106.616875,17.840868 104.125710,14.310669 
	C104.319275,12.952091 104.651222,11.852214 104.982567,10.404675 
	C107.109253,10.944205 109.236534,11.831395 111.677216,12.868762 
z"/>
<path fill="#FBF7EF" opacity="1.000000" stroke="none" 
	d="
M129.149048,25.307528 
	C129.818619,24.420542 130.640656,23.833120 131.741638,23.121355 
	C135.359222,23.865269 137.004150,25.379650 134.035370,29.049927 
	C132.377106,27.843899 130.839310,26.725496 129.149048,25.307528 
z"/>
<path fill="#FBF7EF" opacity="1.000000" stroke="none" 
	d="
M132.299713,148.846649 
	C131.681656,147.889587 131.371887,146.785507 131.031815,145.335083 
	C132.371811,144.253006 134.788376,142.693558 134.955093,142.905350 
	C137.373260,145.976913 134.044250,146.981445 132.299713,148.846649 
z"/>
<path fill="#FFFEF7" opacity="1.000000" stroke="none" 
	d="
M113.960892,28.689758 
	C113.309532,27.942451 112.677612,26.811609 112.004539,25.351204 
	C112.635696,26.116499 113.308022,27.211361 113.960892,28.689758 
z"/>
<path fill="#DAB874" opacity="1.000000" stroke="none" 
	d="
M83.644653,157.998383 
	C83.983559,158.036072 84.010002,158.507812 84.012207,158.743835 
	C82.531982,158.741714 81.049545,158.503586 79.231476,158.080399 
	C80.365807,157.917130 81.835777,157.938904 83.644653,157.998383 
z"/>
<path fill="#FFFEF7" opacity="1.000000" stroke="none" 
	d="
M111.984756,24.650700 
	C111.326988,23.920761 110.678017,22.808968 109.978882,21.371296 
	C110.617004,22.119892 111.305283,23.194370 111.984756,24.650700 
z"/>
<path fill="#FFFEF7" opacity="1.000000" stroke="none" 
	d="
M115.076004,30.923649 
	C114.531189,30.606226 114.243103,30.122061 113.931702,29.347813 
	C114.383179,29.624123 114.857956,30.190516 115.076004,30.923649 
z"/>
<path fill="#CFAB64" opacity="1.000000" stroke="none" 
	d="
M143.328705,78.953125 
	C143.529984,78.487915 143.994232,77.863182 144.740295,77.123306 
	C144.545303,77.603310 144.068497,78.198448 143.328705,78.953125 
z"/>
<path fill="#E5CD9C" opacity="1.000000" stroke="none" 
	d="
M77.125603,162.257339 
	C77.445770,162.032684 77.934464,162.006866 78.774567,162.097931 
	C78.515366,162.295258 77.904747,162.375717 77.125603,162.257339 
z"/>
<path fill="#FEFBE8" opacity="1.000000" stroke="none" 
	d="
M116.992096,36.732437 
	C116.700996,36.547180 116.409325,36.073586 116.139191,35.310883 
	C116.437653,35.495880 116.714584,35.969990 116.992096,36.732437 
z"/>
<path fill="#DAB874" opacity="1.000000" stroke="none" 
	d="
M76.272919,157.423859 
	C76.109612,157.580994 75.742218,157.551666 75.184082,157.310333 
	C75.351837,157.144669 75.710342,157.191040 76.272919,157.423859 
z"/>
<path fill="#DAB874" opacity="1.000000" stroke="none" 
	d="
M75.235306,161.866852 
	C75.270241,161.708008 75.555069,161.643204 75.926842,161.731659 
	C75.837593,161.910248 75.661400,161.935577 75.235306,161.866852 
z"/>
<path fill="#FFFEF7" opacity="1.000000" stroke="none" 
	d="
M115.926712,33.892021 
	C115.680588,33.990292 115.480835,33.794968 115.369873,33.291313 
	C115.605667,33.225712 115.777138,33.430862 115.926712,33.892021 
z"/>
<path fill="#FEFBE8" opacity="1.000000" stroke="none" 
	d="
M123.880432,65.964996 
	C123.687347,65.977058 123.453835,65.745811 123.204582,65.262260 
	C123.495712,65.164986 123.712769,65.402229 123.880432,65.964996 
z"/>
<path fill="#FFFFFD" opacity="1.000000" stroke="none" 
	d="
M22.089430,115.982574 
	C22.089430,115.982574 21.885765,115.678383 21.913139,115.094589 
	C21.292049,113.341072 20.643587,112.171341 19.995125,111.001617 
	C19.995123,111.001617 19.815451,110.709595 19.872746,110.139320 
	C19.300070,108.046524 18.670097,106.524002 18.040127,105.001480 
	C17.931583,104.676422 17.823038,104.351357 17.756744,103.478905 
	C17.590866,102.623306 17.382736,102.315094 17.174606,102.006889 
	C17.079227,101.574783 16.983850,101.142677 17.170143,100.169586 
	C16.966515,98.085510 16.481213,96.542419 15.995911,94.999336 
	C15.867719,94.062347 15.739528,93.125359 15.763858,91.341972 
	C15.887304,85.979919 15.858229,81.464256 15.829153,76.948601 
	C15.847709,76.509384 15.866263,76.070168 16.307276,75.118652 
	C17.096874,71.957718 17.464018,69.309082 17.831161,66.660446 
	C17.831161,66.660446 17.801687,66.307762 18.270668,66.074860 
	C19.087238,64.079185 19.434826,62.316402 19.782415,60.553623 
	C19.782415,60.553623 19.744144,60.244942 20.216002,60.049294 
	C21.053354,58.425198 21.418852,56.996750 21.784348,55.568306 
	C21.784348,55.568306 21.793554,55.251484 22.248127,55.062050 
	C23.130833,53.575974 23.558962,52.279331 23.987091,50.982685 
	C23.987093,50.982685 24.001251,50.999031 24.239048,50.845512 
	C24.598429,50.335175 24.720015,49.978352 24.841602,49.621529 
	C24.841602,49.621529 24.886887,49.278671 25.209826,48.989357 
	C25.646126,48.369839 25.759485,48.039639 25.872845,47.709438 
	C25.872845,47.709438 25.974072,47.313297 26.289070,47.033791 
	C26.832600,46.536713 26.956173,46.270405 26.974789,45.955349 
	C26.974789,45.955349 27.004654,45.994194 27.229668,45.848213 
	C27.588697,45.356403 27.722713,45.010571 27.856728,44.664738 
	C27.856728,44.664738 27.969704,44.289288 28.285290,44.027515 
	C28.828503,43.557571 28.960777,43.300331 28.997698,42.994019 
	C28.997698,42.994019 29.000229,43.000000 29.236122,42.864212 
	C29.611145,42.399742 29.750277,42.071056 29.889408,41.742371 
	C30.443317,40.929913 30.997225,40.117455 32.031609,39.046616 
	C32.780922,38.566814 32.936722,38.283268 32.979485,37.937592 
	C33.018257,37.612446 33.164684,37.346607 33.889511,36.956993 
	C34.545708,36.472012 34.731167,36.170120 34.916630,35.868225 
	C34.916630,35.868225 34.957100,35.959873 35.167709,35.857128 
	C35.554291,35.455402 35.730255,35.156425 35.906219,34.857449 
	C35.906223,34.857449 35.953751,34.951717 36.163391,34.852264 
	C36.551025,34.454479 36.729019,34.156143 36.907013,33.857807 
	C36.907013,33.857807 36.954144,33.951771 37.163780,33.852863 
	C37.552612,33.456593 37.731815,33.159229 37.911018,32.861866 
	C37.911018,32.861866 37.956924,32.954403 38.166481,32.855598 
	C38.556641,32.460995 38.737244,32.165199 38.917843,31.869402 
	C38.917843,31.869402 38.963333,31.960140 39.170158,31.865788 
	C39.572945,31.491552 39.768906,31.211668 39.964867,30.931784 
	C39.964867,30.931784 39.993118,30.996674 40.203262,30.902269 
	C40.611118,30.543381 40.808838,30.278896 41.006557,30.014412 
	C41.228168,29.751362 41.449783,29.488314 42.093338,29.056118 
	C42.738682,28.744400 42.897663,28.549330 42.992218,28.301758 
	C43.432938,27.914093 43.873657,27.526428 44.838680,26.989668 
	C45.586304,26.600832 45.809624,26.361092 46.032944,26.121351 
	C46.446583,25.762333 46.860226,25.403313 47.804276,24.937826 
	C48.568123,24.585480 48.801556,24.339602 49.034988,24.093721 
	C49.034988,24.093721 49.028976,24.014870 49.353798,24.006363 
	C50.112888,23.648821 50.547153,23.299788 50.981419,22.950752 
	C50.981419,22.950752 50.994591,23.002836 51.287941,22.984598 
	C52.032894,22.597578 52.484501,22.228798 52.936111,21.860020 
	C52.936111,21.860020 52.962921,21.948141 53.154198,21.891876 
	C53.649899,21.703634 53.867359,21.485132 53.997860,21.180103 
	C53.997860,21.180103 54.360928,20.966721 54.820274,20.909595 
	C55.517948,20.629280 55.756279,20.406088 55.994610,20.182896 
	C55.994610,20.182896 56.354488,19.958921 56.957512,19.960543 
	C58.706738,19.307819 59.852936,18.653475 60.999138,17.999134 
	C60.999138,17.999134 61.289021,17.813778 61.808052,17.892300 
	C63.469879,18.661430 64.612679,19.352037 65.825706,20.288143 
	C65.926407,20.701115 65.956879,20.868593 65.982178,21.377954 
	C65.351768,22.463860 64.726547,23.207884 63.747276,24.119354 
	C63.320587,25.830004 63.247948,27.373209 62.924740,29.070250 
	C63.068802,29.820580 63.463428,30.417074 63.912617,31.338511 
	C64.007164,32.100517 64.047157,32.537579 63.857841,33.072655 
	C63.334530,33.350559 63.123459,33.600483 62.958992,34.184082 
	C62.930264,34.624977 62.937862,34.802231 62.877552,35.166405 
	C62.809643,35.353321 62.883217,35.744102 62.776096,35.902168 
	C62.767071,36.398609 62.865170,36.736988 62.960102,37.444912 
	C64.341621,40.181530 65.726303,42.548607 66.936142,45.267075 
	C67.174904,47.740334 67.588509,49.862202 68.089928,52.204857 
	C68.352737,52.701942 68.590309,52.905041 68.927704,53.041847 
	C68.964943,53.048763 68.952034,53.123405 68.963409,53.539272 
	C68.029251,58.230488 70.389229,61.171051 73.021072,64.402176 
	C73.968597,66.856003 74.850372,68.945557 75.909691,70.940842 
	C76.559494,72.164787 77.481262,73.244354 78.281219,74.451202 
	C78.281517,74.513664 78.200439,74.608696 78.158936,74.990486 
	C79.740875,76.586777 81.364311,77.801270 83.206650,79.123428 
	C83.704788,79.421799 83.898399,79.677376 84.149017,80.310242 
	C86.512405,81.753693 88.733170,82.884705 91.148529,84.298996 
	C92.569077,86.399315 93.795044,88.216370 94.870804,90.218933 
	C94.504456,90.644066 94.250999,90.833878 93.616379,91.037125 
	C92.863419,92.093971 92.454330,93.087555 91.907394,94.353302 
	C90.866203,95.428307 89.962875,96.231148 88.710693,97.048523 
	C87.609573,98.080139 86.857315,99.097229 86.052483,100.070267 
	C85.999908,100.026215 86.121712,100.089066 85.868851,100.163696 
	C85.434288,100.527649 85.252586,100.816963 85.017082,101.322235 
	C84.963272,101.538193 84.941833,101.982811 84.665718,102.134766 
	C83.258766,103.519730 82.127930,104.752739 80.753662,106.067062 
	C80.330009,106.429230 80.149780,106.710068 79.744507,107.077362 
	C79.237541,107.351036 79.055626,107.608841 78.669693,108.043991 
	C77.501587,109.049324 76.637512,109.947906 75.836639,110.832581 
	C75.899849,110.818672 75.778801,110.772827 75.452774,110.851166 
	C72.428230,113.044556 69.729721,115.159607 66.777267,117.328293 
	C66.053207,117.602051 65.583092,117.822182 64.879501,118.102524 
	C64.346649,118.313210 64.129150,118.541626 63.828224,118.945404 
	C63.662907,119.042816 63.287491,119.122444 63.012856,119.163857 
	C62.490757,119.467674 62.243294,119.730087 61.997917,119.996399 
	C62.000000,120.000305 61.992344,119.994278 61.615883,119.999176 
	C57.810005,121.918739 54.380585,123.833405 50.729465,125.837677 
	C50.507767,125.927269 50.038296,126.018402 49.646225,126.007675 
	C47.823967,126.606071 46.393784,127.215195 44.696266,127.910767 
	C44.059597,128.053421 43.690250,128.109619 43.064999,128.169495 
	C42.539997,128.367935 42.270901,128.562683 41.639370,128.836288 
	C40.540287,129.000534 39.803635,129.085953 38.898792,128.905640 
	C37.487625,129.101379 36.244644,129.562851 34.589951,130.081253 
	C33.073017,130.212387 31.967796,130.286606 30.862576,130.360825 
	C30.862576,130.360825 30.906132,130.177795 30.848747,129.864227 
	C30.513485,129.374344 30.235605,129.197998 29.957726,129.021667 
	C29.957726,129.021667 30.001772,129.001190 29.920361,128.792114 
	C29.675991,128.292694 29.440901,128.083313 29.133678,127.954948 
	C29.133678,127.954948 29.046141,127.944366 29.022268,127.611252 
	C28.616457,126.876640 28.234520,126.475136 27.852585,126.073624 
	C27.852585,126.073624 27.964134,126.032463 27.959721,125.708275 
	C27.273058,124.609802 26.590811,123.835526 25.908564,123.061241 
	C25.908564,123.061241 25.976187,123.002373 25.911900,122.816833 
	C25.708883,122.336510 25.488865,122.127205 25.187557,122.003372 
	C25.187557,122.003372 24.961889,121.664909 24.895546,121.200058 
	C24.586956,120.490929 24.344711,120.246658 24.102465,120.002380 
	C24.102465,120.002380 23.884312,119.715637 23.901241,119.159515 
	C23.308588,117.729790 22.699009,116.856178 22.089430,115.982574 
z"/>
<path fill="#FFFCF3" opacity="1.000000" stroke="none" 
	d="
M42.698975,142.133133 
	C39.554104,139.259232 36.409229,136.385345 33.340057,132.943542 
	C42.266201,130.246002 51.116646,128.116348 60.335052,125.929482 
	C64.435402,124.082420 68.118462,122.173851 71.935570,120.587936 
	C72.866165,120.201302 74.236855,120.873947 75.073914,121.166702 
	C73.497612,122.526962 72.252602,123.780067 70.766296,125.104034 
	C70.343864,125.448441 70.162720,125.721992 69.697212,126.100937 
	C68.585625,127.083344 67.758385,127.960373 66.655121,129.001740 
	C66.068108,129.728104 65.757118,130.290146 65.125648,130.920761 
	C61.533611,132.991364 58.262062,134.993408 54.644615,137.027679 
	C51.786495,138.150330 49.353882,139.287018 50.644638,142.845306 
	C49.872276,142.887497 49.428181,142.863968 48.839363,142.555222 
	C46.795193,137.882584 44.684090,142.767715 42.698975,142.133133 
z"/>
<path fill="#D4B679" opacity="1.000000" stroke="none" 
	d="
M59.967091,125.986710 
	C51.116646,128.116348 42.266201,130.246002 33.132919,132.674759 
	C32.231991,132.287689 31.613897,131.601501 30.929190,130.638062 
	C31.967796,130.286606 33.073017,130.212387 34.949516,130.106689 
	C36.836189,129.773926 37.951584,129.472641 39.066982,129.171371 
	C39.803635,129.085953 40.540287,129.000534 41.894169,128.835434 
	C42.781231,128.559097 43.051067,128.362457 43.320904,128.165833 
	C43.690250,128.109619 44.059597,128.053421 45.046913,127.929962 
	C47.122688,127.247932 48.580494,126.633171 50.038300,126.018402 
	C50.038296,126.018402 50.507767,125.927269 51.113266,125.902115 
	C53.818550,125.289207 55.918335,124.701454 58.055107,124.421829 
	C58.717091,125.148880 59.342091,125.567795 59.967091,125.986710 
z"/>
<path fill="#FEF9E4" opacity="1.000000" stroke="none" 
	d="
M73.006302,142.538956 
	C76.460411,143.064072 74.153191,145.078384 73.551361,145.852646 
	C71.264977,148.794144 68.667740,151.494019 65.978287,154.542694 
	C64.112625,154.208755 62.455387,153.616348 60.416008,152.650909 
	C62.004539,150.512390 63.975220,148.746902 66.270996,146.882172 
	C68.732819,145.368271 70.869560,143.953613 73.006302,142.538956 
z"/>
<path fill="#D0A554" opacity="1.000000" stroke="none" 
	d="
M48.984085,142.840454 
	C49.428181,142.863968 49.872276,142.887497 51.047085,142.902802 
	C56.844658,141.310272 61.911518,139.725937 66.986275,138.494904 
	C66.999062,139.554718 67.003952,140.261246 66.962067,141.294113 
	C63.678242,142.563293 60.347549,143.278763 57.247982,144.555389 
	C55.917572,145.103363 55.067333,146.817123 53.999466,148.000610 
	C54.000000,148.000000 53.999439,148.000610 53.999439,148.000610 
	C50.316032,148.825638 47.835903,147.803131 47.510128,143.407349 
	C48.093346,143.033646 48.538715,142.937042 48.984085,142.840454 
z"/>
<path fill="#D0A554" opacity="1.000000" stroke="none" 
	d="
M65.945900,146.981415 
	C63.975220,148.746902 62.004539,150.512390 60.079559,152.619034 
	C59.467907,152.124939 58.810562,151.289703 58.629021,151.059036 
	C56.802574,150.098709 55.433662,149.378952 54.032097,148.329895 
	C53.999439,148.000610 54.000000,148.000000 54.311131,147.869080 
	C58.396809,147.485901 62.171352,147.233658 65.945900,146.981415 
z"/>
<path fill="#CCAC6D" opacity="1.000000" stroke="none" 
	d="
M65.987358,21.036076 
	C65.956879,20.868593 65.926407,20.701115 65.880951,19.974474 
	C65.844925,18.790522 65.823891,18.165735 65.802849,17.540947 
	C66.911407,16.719563 68.019958,15.898179 69.480270,15.033264 
	C70.995621,16.593571 72.159225,18.197409 73.246841,20.305660 
	C73.041931,20.958296 72.913010,21.106516 72.450958,21.167915 
	C70.699066,20.056820 69.280296,19.032545 67.872429,18.016142 
	C67.128967,19.207193 66.558167,20.121634 65.987358,21.036076 
z"/>
<path fill="#FDF8E1" opacity="1.000000" stroke="none" 
	d="
M15.599226,77.288559 
	C15.858229,81.464256 15.887304,85.979919 15.849142,90.995392 
	C15.644369,86.872971 15.506833,82.250748 15.599226,77.288559 
z"/>
<path fill="#FDF8E1" opacity="1.000000" stroke="none" 
	d="
M17.585735,66.961700 
	C17.464018,69.309082 17.096874,71.957718 16.399406,74.800995 
	C16.492823,72.418076 16.916565,69.840515 17.585735,66.961700 
z"/>
<path fill="#FEFAE3" opacity="1.000000" stroke="none" 
	d="
M48.839363,142.555222 
	C48.538715,142.937042 48.093346,143.033646 47.320312,143.229584 
	C46.235649,143.264511 45.478653,143.200119 44.109222,143.091522 
	C43.496780,143.047348 43.000141,142.998413 43.000141,142.998413 
	C43.000141,142.998413 42.830166,142.572479 42.764572,142.352814 
	C44.684090,142.767715 46.795193,137.882584 48.839363,142.555222 
z"/>
<path fill="#FDF8E1" opacity="1.000000" stroke="none" 
	d="
M15.945316,95.378883 
	C16.481213,96.542419 16.966515,98.085510 17.172144,99.836792 
	C16.559889,98.616135 16.227304,97.187286 15.945316,95.378883 
z"/>
<path fill="#FDF8E1" opacity="1.000000" stroke="none" 
	d="
M65.575256,17.346527 
	C65.823891,18.165735 65.844925,18.790522 65.810715,19.728977 
	C64.612679,19.352037 63.469879,18.661430 61.979950,17.885405 
	C62.871105,17.584028 64.109390,17.368069 65.575256,17.346527 
z"/>
<path fill="#FDF8E1" opacity="1.000000" stroke="none" 
	d="
M19.531881,60.826698 
	C19.434826,62.316402 19.087238,64.079185 18.351095,65.917236 
	C18.402142,64.361595 18.841743,62.730682 19.531881,60.826698 
z"/>
<path fill="#FDF8E1" opacity="1.000000" stroke="none" 
	d="
M18.013371,105.361626 
	C18.670097,106.524002 19.300070,108.046524 19.872639,109.967896 
	C19.205698,108.818413 18.596157,107.270096 18.013371,105.361626 
z"/>
<path fill="#FDF8E1" opacity="1.000000" stroke="none" 
	d="
M20.000811,111.344162 
	C20.643587,112.171341 21.292049,113.341072 21.890938,114.912903 
	C21.229742,114.105576 20.618120,112.896133 20.000811,111.344162 
z"/>
<path fill="#FDF8E1" opacity="1.000000" stroke="none" 
	d="
M23.720188,51.174194 
	C23.558962,52.279331 23.130833,53.575974 22.342216,54.934525 
	C22.472250,53.786190 22.962767,52.575943 23.720188,51.174194 
z"/>
<path fill="#FDF8E1" opacity="1.000000" stroke="none" 
	d="
M21.531921,55.816200 
	C21.418852,56.996750 21.053354,58.425198 20.300480,59.918713 
	C20.368567,58.677223 20.824032,57.370663 21.531921,55.816200 
z"/>
<path fill="#FDF8E1" opacity="1.000000" stroke="none" 
	d="
M60.659615,18.007545 
	C59.852936,18.653475 58.706738,19.307819 57.166107,19.923021 
	C57.954483,19.261238 59.137283,18.638597 60.659615,18.007545 
z"/>
<path fill="#FDF8E1" opacity="1.000000" stroke="none" 
	d="
M22.094547,116.308311 
	C22.699009,116.856178 23.308588,117.729790 23.867245,118.982605 
	C23.244101,118.452553 22.671883,117.543304 22.094547,116.308311 
z"/>
<path fill="#FDF8E1" opacity="1.000000" stroke="none" 
	d="
M25.949593,123.374481 
	C26.590811,123.835526 27.273058,124.609802 27.919933,125.752449 
	C27.253246,125.309784 26.621933,124.498756 25.949593,123.374481 
z"/>
<path fill="#FDF8E1" opacity="1.000000" stroke="none" 
	d="
M52.637039,21.886539 
	C52.484501,22.228798 52.032894,22.597578 51.268452,22.966049 
	C51.416401,22.614843 51.877186,22.263952 52.637039,21.886539 
z"/>
<path fill="#FDF8E1" opacity="1.000000" stroke="none" 
	d="
M50.688431,22.968266 
	C50.547153,23.299788 50.112888,23.648821 49.387108,24.027672 
	C49.528873,23.700253 49.962162,23.343016 50.688431,22.968266 
z"/>
<path fill="#FDF8E1" opacity="1.000000" stroke="none" 
	d="
M27.894104,126.359680 
	C28.234520,126.475136 28.616457,126.876640 29.037300,127.569809 
	C28.696012,127.456230 28.315819,127.050980 27.894104,126.359680 
z"/>
<path fill="#D0A554" opacity="1.000000" stroke="none" 
	d="
M43.067711,143.160828 
	C43.000141,142.998413 43.496780,143.047348 43.730156,143.135559 
	C43.687447,143.256943 43.411362,143.290100 43.067711,143.160828 
z"/>
<path fill="#FDF8E1" opacity="1.000000" stroke="none" 
	d="
M34.663422,35.959839 
	C34.731167,36.170120 34.545708,36.472012 34.099377,36.857494 
	C34.029076,36.644539 34.219643,36.347992 34.663422,35.959839 
z"/>
<path fill="#FDF8E1" opacity="1.000000" stroke="none" 
	d="
M29.172684,128.202499 
	C29.440901,128.083313 29.675991,128.292694 29.907854,128.812958 
	C29.721733,128.845276 29.466709,128.647659 29.172684,128.202499 
z"/>
<path fill="#FDF8E1" opacity="1.000000" stroke="none" 
	d="
M35.653633,34.943062 
	C35.730255,35.156425 35.554291,35.455402 35.122231,35.836136 
	C35.044441,35.621479 35.222744,35.325077 35.653633,34.943062 
z"/>
<path fill="#FDF8E1" opacity="1.000000" stroke="none" 
	d="
M17.161976,102.292313 
	C17.382736,102.315094 17.590866,102.623306 17.780455,103.221672 
	C17.557722,103.200470 17.353533,102.889099 17.161976,102.292313 
z"/>
<path fill="#FDF8E1" opacity="1.000000" stroke="none" 
	d="
M30.030422,129.275513 
	C30.235605,129.197998 30.513485,129.374344 30.892946,129.781189 
	C30.697392,129.850922 30.400255,129.690140 30.030422,129.275513 
z"/>
<path fill="#FDF8E1" opacity="1.000000" stroke="none" 
	d="
M32.749908,38.042408 
	C32.936722,38.283268 32.780922,38.566814 32.294563,38.905579 
	C32.224808,38.731026 32.372566,38.439125 32.749908,38.042408 
z"/>
<path fill="#FDF8E1" opacity="1.000000" stroke="none" 
	d="
M29.653767,41.880623 
	C29.750277,42.071056 29.611145,42.399742 29.233299,42.863472 
	C29.135763,42.671967 29.276943,42.345421 29.653767,41.880623 
z"/>
<path fill="#FDF8E1" opacity="1.000000" stroke="none" 
	d="
M26.767643,46.059631 
	C26.956173,46.270405 26.832600,46.536713 26.414995,46.872742 
	C26.185778,46.654110 26.297302,46.378345 26.767643,46.059631 
z"/>
<path fill="#FDF8E1" opacity="1.000000" stroke="none" 
	d="
M25.648569,47.857658 
	C25.759485,48.039639 25.646126,48.369839 25.311115,48.849213 
	C25.201075,48.667545 25.312683,48.336708 25.648569,47.857658 
z"/>
<path fill="#FDF8E1" opacity="1.000000" stroke="none" 
	d="
M24.606850,49.784019 
	C24.720015,49.978352 24.598429,50.335175 24.229307,50.842354 
	C24.111881,50.643978 24.241991,50.295242 24.606850,49.784019 
z"/>
<path fill="#FDF8E1" opacity="1.000000" stroke="none" 
	d="
M37.658195,32.945446 
	C37.731815,33.159229 37.552612,33.456593 37.115700,33.831627 
	C37.040447,33.615875 37.222912,33.322453 37.658195,32.945446 
z"/>
<path fill="#FDF8E1" opacity="1.000000" stroke="none" 
	d="
M38.665260,31.952751 
	C38.737244,32.165199 38.556641,32.460995 38.119171,32.834881 
	C38.045761,32.620682 38.229218,32.328392 38.665260,31.952751 
z"/>
<path fill="#FDF8E1" opacity="1.000000" stroke="none" 
	d="
M39.708504,31.000538 
	C39.768906,31.211668 39.572945,31.491552 39.123909,31.844891 
	C39.064602,31.635328 39.258373,31.352310 39.708504,31.000538 
z"/>
<path fill="#FDF8E1" opacity="1.000000" stroke="none" 
	d="
M40.759750,30.082542 
	C40.808838,30.278896 40.611118,30.543381 40.172310,30.885113 
	C40.125130,30.691797 40.319035,30.421236 40.759750,30.082542 
z"/>
<path fill="#FDF8E1" opacity="1.000000" stroke="none" 
	d="
M27.616165,44.812782 
	C27.722713,45.010571 27.588697,45.356403 27.205971,45.842129 
	C27.096708,45.641628 27.236155,45.301228 27.616165,44.812782 
z"/>
<path fill="#FDF8E1" opacity="1.000000" stroke="none" 
	d="
M42.787945,28.332054 
	C42.897663,28.549330 42.738682,28.744400 42.340721,28.966045 
	C42.185909,28.744431 42.325081,28.516840 42.787945,28.332054 
z"/>
<path fill="#FDF8E1" opacity="1.000000" stroke="none" 
	d="
M28.787739,43.088707 
	C28.960777,43.300331 28.828503,43.557571 28.412951,43.878742 
	C28.184982,43.653519 28.302567,43.384071 28.787739,43.088707 
z"/>
<path fill="#FDF8E1" opacity="1.000000" stroke="none" 
	d="
M45.780426,26.160286 
	C45.809624,26.361092 45.586304,26.600832 45.118401,26.897038 
	C45.091846,26.702074 45.309875,26.450645 45.780426,26.160286 
z"/>
<path fill="#FDF8E1" opacity="1.000000" stroke="none" 
	d="
M36.654419,33.942146 
	C36.729019,34.156143 36.551025,34.454479 36.115154,34.830830 
	C36.038792,34.614723 36.220306,34.320606 36.654419,33.942146 
z"/>
<path fill="#FDF8E1" opacity="1.000000" stroke="none" 
	d="
M48.776592,24.136393 
	C48.801556,24.339602 48.568123,24.585480 48.079411,24.881874 
	C48.055485,24.681278 48.286842,24.430172 48.776592,24.136393 
z"/>
<path fill="#FDF8E1" opacity="1.000000" stroke="none" 
	d="
M53.752571,21.194233 
	C53.867359,21.485132 53.649899,21.703634 53.111542,21.874517 
	C52.952339,21.557661 53.162231,21.322641 53.752571,21.194233 
z"/>
<path fill="#FDF8E1" opacity="1.000000" stroke="none" 
	d="
M24.132553,120.265182 
	C24.344711,120.246658 24.586956,120.490929 24.860573,120.999695 
	C24.648846,121.018784 24.405745,120.773392 24.132553,120.265182 
z"/>
<path fill="#FDF8E1" opacity="1.000000" stroke="none" 
	d="
M25.209854,122.243851 
	C25.488865,122.127205 25.708883,122.336510 25.896896,122.859070 
	C25.600945,123.013039 25.362932,122.812195 25.209854,122.243851 
z"/>
<path fill="#FDF8E1" opacity="1.000000" stroke="none" 
	d="
M55.741138,20.198887 
	C55.756279,20.406088 55.517948,20.629280 55.028889,20.881010 
	C55.014664,20.677992 55.251163,20.446432 55.741138,20.198887 
z"/>
<path fill="#CCAC6D" opacity="1.000000" stroke="none" 
	d="
M73.385574,20.608269 
	C81.277611,26.990095 88.954933,33.573730 96.826813,40.790894 
	C97.012520,42.963367 97.003670,44.502304 96.701508,45.886009 
	C94.943726,44.625496 93.479256,43.520210 92.086945,42.083817 
	C91.878830,41.011406 91.798447,40.070450 91.287827,39.559212 
	C85.156860,33.420818 78.962151,27.346090 72.784088,21.254734 
	C72.913010,21.106516 73.041931,20.958296 73.385574,20.608269 
z"/>
<path fill="#D0B278" opacity="1.000000" stroke="none" 
	d="
M103.705444,30.844730 
	C103.447990,33.820045 102.944794,36.626400 102.181671,39.758621 
	C101.432014,40.098282 100.942284,40.112083 100.452560,40.125881 
	C100.837692,37.045086 101.195343,33.959904 101.684212,30.895657 
	C101.710312,30.732101 102.842453,30.745007 103.705444,30.844730 
z"/>
<path fill="#D2A143" opacity="1.000000" stroke="none" 
	d="
M100.329590,40.424446 
	C100.942284,40.112083 101.432014,40.098282 102.163788,40.100235 
	C102.602516,40.510715 102.799187,40.905449 102.764290,41.834908 
	C102.686249,44.248672 102.839767,46.127712 102.996445,48.003609 
	C102.999603,48.000458 103.008911,47.994091 102.705017,47.842796 
	C101.263176,45.817665 100.125229,43.943821 98.987289,42.069981 
	C99.393738,41.620995 99.800179,41.172005 100.329590,40.424446 
z"/>
<path fill="#D2AC62" opacity="1.000000" stroke="none" 
	d="
M98.822502,41.798416 
	C100.125229,43.943821 101.263176,45.817665 102.552734,48.082947 
	C100.801170,47.663338 98.897995,46.852291 96.994812,46.041245 
	C97.003670,44.502304 97.012520,42.963367 96.992691,41.059761 
	C97.528580,40.972351 98.093147,41.249603 98.822502,41.798416 
z"/>
<path fill="#FEFBE8" opacity="1.000000" stroke="none" 
	d="
M105.996429,20.465549 
	C106.231812,23.266222 106.463821,26.529724 106.430023,30.147274 
	C106.107162,27.310341 106.050110,24.119360 105.996429,20.465549 
z"/>
<path fill="#E9D3A7" opacity="1.000000" stroke="none" 
	d="
M100.923721,13.338958 
	C101.079552,13.250249 101.394073,13.355370 101.854797,13.666267 
	C101.650620,13.878676 101.344429,13.765591 100.923721,13.338958 
z"/>
<path fill="#D2A143" opacity="1.000000" stroke="none" 
	d="
M96.701508,45.886009 
	C98.897995,46.852291 100.801170,47.663338 102.856628,48.234238 
	C103.008911,47.994091 102.999603,48.000458 103.389526,47.994965 
	C104.826096,47.999683 105.872742,48.009899 106.919388,48.020115 
	C109.550629,51.135052 112.181877,54.249989 114.810974,57.959953 
	C117.379967,66.530106 121.298302,73.345100 130.082245,76.445023 
	C130.883896,79.521683 131.526840,82.260109 132.111832,85.248489 
	C132.044952,85.669281 132.036011,85.840103 132.012924,86.005234 
	C131.998764,85.999527 132.015076,86.025452 131.644348,86.017029 
	C128.684448,86.081078 125.495499,83.950485 123.708672,87.913177 
	C122.946327,87.544838 122.462326,87.255714 121.786484,86.941780 
	C121.594627,86.916977 121.210030,86.874977 121.074509,86.653076 
	C120.629669,86.299232 120.320351,86.167290 119.913155,85.813927 
	C119.629951,85.313568 119.378929,85.119698 118.960922,84.805885 
	C118.232651,84.407982 117.605659,84.215096 116.837799,83.757439 
	C113.796478,82.031975 110.896049,80.571274 107.723709,79.063934 
	C106.585487,78.339165 105.719177,77.661049 104.873833,76.684456 
	C104.763626,75.833092 104.632446,75.280197 104.501266,74.727310 
	C103.974709,75.397530 103.448143,76.067741 102.589561,76.810486 
	C101.170235,74.924133 100.082924,72.965248 99.265968,70.986740 
	C99.901886,70.554550 100.267448,70.141968 100.633011,69.729385 
	C99.750092,69.824821 98.867157,69.920250 97.706566,69.886856 
	C97.621277,68.839340 97.813652,67.920647 98.330566,66.981781 
	C99.257538,66.604202 99.859970,66.246803 100.206245,66.041374 
	C98.970062,64.859055 97.963623,63.896481 96.925804,62.541893 
	C94.941910,61.714413 92.989395,61.278942 91.082016,60.525215 
	C92.065582,59.430325 93.004013,58.653687 93.820503,57.564400 
	C92.170212,56.359322 90.641869,55.466888 89.164528,54.281693 
	C89.818520,52.994740 90.421516,52.000553 91.014755,50.672554 
	C90.986931,49.894230 90.968864,49.449722 90.969696,48.994705 
	C90.988594,48.984200 91.018196,48.952671 91.312286,48.935799 
	C91.739479,48.276104 91.872597,47.633278 91.882263,46.727264 
	C91.191383,45.956974 90.623955,45.449871 89.915894,44.691185 
	C89.184425,43.974487 88.593590,43.509380 87.950684,42.723888 
	C87.816582,42.203262 87.734543,42.003025 88.057724,41.552597 
	C89.646889,41.673241 90.830841,42.044083 92.014786,42.414925 
	C93.479256,43.520210 94.943726,44.625496 96.701508,45.886009 
z"/>
<path fill="#FBEDBD" opacity="1.000000" stroke="none" 
	d="
M129.923508,76.106789 
	C121.298302,73.345100 117.379967,66.530106 114.970810,58.275234 
	C115.437828,58.131519 115.675621,58.343109 115.941162,58.853195 
	C118.494179,62.601261 120.952202,66.126381 123.729866,69.741730 
	C125.540405,70.544769 127.031303,71.257584 128.812653,72.410797 
	C129.376556,73.936386 129.650040,75.021591 129.923508,76.106789 
z"/>
<path fill="#D2AC62" opacity="1.000000" stroke="none" 
	d="
M106.874084,47.684250 
	C105.872742,48.009899 104.826096,47.999683 103.386368,47.998116 
	C102.839767,46.127712 102.686249,44.248672 102.826782,42.160923 
	C104.356819,43.750942 105.592796,45.549667 106.874084,47.684250 
z"/>
<path fill="#FEFCF0" opacity="1.000000" stroke="none" 
	d="
M129.861053,92.278519 
	C126.641151,94.286072 123.421242,96.293625 119.954803,98.553787 
	C112.050903,101.880424 104.393524,104.954453 96.214165,107.832886 
	C93.851685,108.072006 92.011192,108.506721 90.236420,108.603653 
	C93.911736,101.569504 97.521324,94.873131 101.547836,88.140755 
	C105.271645,88.426811 108.578522,88.748871 112.025131,89.278549 
	C112.439240,89.673424 112.713615,89.860657 113.228432,90.305321 
	C116.305099,90.868797 119.635872,96.504776 121.564941,89.816238 
	C122.858353,90.257759 123.930840,90.623863 125.276627,91.306717 
	C126.986961,91.841820 128.424011,92.060165 129.861053,92.278519 
z"/>
<path fill="#CDAA68" opacity="1.000000" stroke="none" 
	d="
M90.033768,119.017281 
	C89.000557,121.386215 88.467224,124.202629 86.830345,126.031151 
	C83.395821,129.867783 79.381035,133.184937 74.997849,136.874268 
	C73.928375,137.358765 73.465523,137.684357 72.752182,138.002930 
	C72.334656,137.998886 72.167618,138.001877 71.760834,137.846069 
	C71.342850,137.154160 71.164604,136.621017 71.288651,135.934128 
	C75.699905,132.370804 79.878967,129.039017 83.841583,125.467110 
	C84.430153,124.936569 83.998505,123.274200 84.021027,121.728409 
	C83.959999,120.778328 83.916801,120.235306 83.984848,119.517845 
	C84.290466,119.137314 84.523720,118.994904 85.234421,118.943474 
	C87.126572,118.986267 88.580170,119.001778 90.033768,119.017281 
z"/>
<path fill="#F3E1B2" opacity="1.000000" stroke="none" 
	d="
M84.795853,118.916183 
	C84.523720,118.994904 84.290466,119.137314 83.669312,119.655167 
	C82.175850,120.277847 81.109177,120.588776 80.160095,120.593964 
	C82.473701,117.508682 84.669724,114.729141 87.018097,111.655365 
	C88.170532,110.554550 89.170616,109.747993 90.170692,108.941437 
	C92.011192,108.506721 93.851685,108.072006 95.859024,107.912964 
	C94.016510,110.237816 92.007156,112.286987 89.499435,114.677307 
	C87.599342,116.317688 86.197601,117.616936 84.795853,118.916183 
z"/>
<path fill="#CDAA66" opacity="1.000000" stroke="none" 
	d="
M85.234421,118.943466 
	C86.197601,117.616936 87.599342,116.317688 89.294556,114.950821 
	C90.860565,115.732491 92.133110,116.581787 93.405655,117.431091 
	C92.509132,117.954193 91.612610,118.477287 90.374924,119.008835 
	C88.580170,119.001778 87.126572,118.986267 85.234421,118.943466 
z"/>
<path fill="#D0A554" opacity="1.000000" stroke="none" 
	d="
M73.002670,138.009949 
	C73.465523,137.684357 73.928375,137.358765 74.688583,137.012146 
	C74.991959,137.442184 74.997971,137.893265 75.014801,138.682770 
	C75.025612,139.021194 75.007103,139.008408 74.712402,138.987793 
	C73.946030,138.648117 73.474358,138.329025 73.002670,138.009949 
z"/>
<path fill="#FFFCED" opacity="1.000000" stroke="none" 
	d="
M130.082245,76.445023 
	C129.650040,75.021591 129.376556,73.936386 129.080765,72.512482 
	C130.413132,72.314240 132.086365,72.004425 133.055450,72.689980 
	C135.005524,74.069519 136.571930,75.991402 138.629593,78.157196 
	C139.304764,79.085228 139.647003,79.545578 139.989243,80.005920 
	C139.989243,80.005920 139.999420,80.000542 139.994873,80.005753 
	C137.526093,83.557159 135.061829,87.103371 132.176971,90.496674 
	C131.842606,88.904335 131.928833,87.464897 132.015076,86.025452 
	C132.015076,86.025452 131.998764,85.999527 132.185059,85.935341 
	C132.442169,85.770767 132.595276,85.629738 132.569305,85.577156 
	C132.466599,85.369232 132.307800,85.189018 132.169785,84.998535 
	C131.526840,82.260109 130.883896,79.521683 130.082245,76.445023 
z"/>
<path fill="#CFAB64" opacity="1.000000" stroke="none" 
	d="
M139.979523,79.696350 
	C139.647003,79.545578 139.304764,79.085228 138.906219,78.337112 
	C139.223206,78.495148 139.596497,78.940964 139.979523,79.696350 
z"/>
<path fill="#FBF2CD" opacity="1.000000" stroke="none" 
	d="
M131.644348,86.017029 
	C131.928833,87.464897 131.842606,88.904335 131.873016,90.629883 
	C131.446304,91.346046 130.902939,91.776100 130.110321,92.242332 
	C128.424011,92.060165 126.986961,91.841820 125.274734,91.312561 
	C124.999550,91.001640 124.989426,91.004387 125.285645,90.958611 
	C125.914993,90.519089 126.248131,90.125343 126.581268,89.731598 
	C126.074112,89.515808 125.566963,89.300011 124.941986,88.848053 
	C124.545113,88.405396 124.266068,88.198891 123.987022,87.992386 
	C125.495499,83.950485 128.684448,86.081078 131.644348,86.017029 
z"/>
<path fill="#D1A246" opacity="1.000000" stroke="none" 
	d="
M72.752182,138.002930 
	C73.474358,138.329025 73.946030,138.648117 74.717354,138.995117 
	C74.421532,139.963043 73.826073,140.903061 73.118454,142.191010 
	C70.869560,143.953613 68.732819,145.368271 66.270996,146.882172 
	C62.171352,147.233658 58.396809,147.485901 54.310596,147.869690 
	C55.067333,146.817123 55.917572,145.103363 57.247982,144.555389 
	C60.347549,143.278763 63.678242,142.563293 67.223366,141.200592 
	C68.022003,140.521500 68.512573,140.262268 69.261780,140.096146 
	C70.347145,139.461136 71.173866,138.733002 72.000587,138.004868 
	C72.167618,138.001877 72.334656,137.998886 72.752182,138.002930 
z"/>
<path fill="#FFFCEA" opacity="1.000000" stroke="none" 
	d="
M92.086945,42.083817 
	C90.830841,42.044083 89.646889,41.673241 88.029724,41.581627 
	C87.596512,41.860855 87.573181,41.942329 87.595062,41.947212 
	C87.616943,41.952099 87.607819,41.908157 87.876633,41.850464 
	C87.967598,41.017735 88.052734,39.909527 87.566231,39.525517 
	C85.494659,37.890350 83.253906,36.469532 80.888649,34.691261 
	C77.467651,31.540827 74.232903,28.669598 70.951988,25.524189 
	C70.251732,25.422756 69.597641,25.595507 68.927040,26.106676 
	C68.511398,27.199118 68.112282,27.953138 68.130470,27.918776 
	C71.843208,31.086353 75.394798,34.116440 79.042358,37.357693 
	C79.333641,37.835411 79.595619,37.985886 80.032570,38.250942 
	C80.431030,38.634953 80.721207,38.788307 81.147682,39.212990 
	C82.272499,40.096703 83.261024,40.709087 84.370544,41.610664 
	C83.363747,42.129688 81.989693,42.888592 81.150635,42.498055 
	C77.457146,40.778927 73.918030,38.728119 70.283089,36.792107 
	C70.243202,36.786713 70.214783,36.862019 70.313156,36.622269 
	C70.332420,36.228935 70.253319,36.075348 69.991699,35.634079 
	C67.776428,32.814270 64.208321,31.045624 65.881645,26.691406 
	C66.111046,26.094460 64.734398,24.880304 64.101318,23.951908 
	C64.726547,23.207884 65.351768,22.463860 65.982178,21.377956 
	C66.558167,20.121634 67.128967,19.207193 67.872429,18.016142 
	C69.280296,19.032545 70.699066,20.056820 72.450958,21.167915 
	C78.962151,27.346090 85.156860,33.420818 91.287827,39.559212 
	C91.798447,40.070450 91.878830,41.011406 92.086945,42.083817 
z"/>
<path fill="#D3A03D" opacity="1.000000" stroke="none" 
	d="
M90.236420,108.603653 
	C89.170616,109.747993 88.170532,110.554550 86.672989,111.635002 
	C84.116920,111.944298 82.058304,111.979713 79.809326,111.775070 
	C79.072861,112.351143 78.526764,113.167282 77.736588,113.990692 
	C77.492516,113.997978 77.004623,114.019455 76.868210,113.700577 
	C76.414124,112.512077 76.096466,111.642448 75.778801,110.772827 
	C75.778801,110.772827 75.899849,110.818672 76.178650,110.774582 
	C77.296204,109.799408 78.134964,108.868317 78.973724,107.937225 
	C79.055626,107.608841 79.237541,107.351036 79.980835,106.986038 
	C80.627159,106.534096 80.812119,106.259918 80.997086,105.985748 
	C82.127930,104.752739 83.258766,103.519730 84.902039,102.047096 
	C85.613251,101.543755 85.812027,101.280037 86.054779,100.786453 
	C86.098747,100.556580 86.121712,100.089066 86.121712,100.089066 
	C86.121712,100.089066 85.999908,100.026215 86.390762,100.033951 
	C87.540916,99.039116 88.300232,98.036552 89.059547,97.033989 
	C89.962875,96.231148 90.866203,95.428307 92.211327,94.222534 
	C93.088829,92.871025 93.524536,91.922447 93.960243,90.973877 
	C94.250999,90.833878 94.504456,90.644066 95.209991,90.106567 
	C96.450607,88.065079 97.201851,86.321449 98.328995,84.683472 
	C99.478386,84.883530 100.251862,84.977951 101.023582,85.460709 
	C101.058189,86.624939 101.094551,87.400848 101.130913,88.176750 
	C97.521324,94.873131 93.911736,101.569504 90.236420,108.603653 
z"/>
<path fill="#FEF7D9" opacity="1.000000" stroke="none" 
	d="
M101.025337,85.072380 
	C100.251862,84.977951 99.478386,84.883530 98.300095,84.360321 
	C97.401794,82.494209 96.908318,81.056885 96.213142,79.032112 
	C94.184174,80.954758 92.569054,82.485237 90.953934,84.015724 
	C88.733170,82.884705 86.512405,81.753693 84.441933,80.184052 
	C86.076820,79.056450 87.561424,78.367462 89.387794,77.519867 
	C87.258781,76.235733 85.642174,75.260674 84.391129,74.160240 
	C87.112907,73.394722 89.512764,72.873222 91.795677,72.033684 
	C92.390381,71.814980 92.620399,70.604637 93.193344,69.620071 
	C94.240669,68.655739 95.112579,67.921089 96.318138,67.125801 
	C97.103195,67.044090 97.554611,67.023018 98.006020,67.001953 
	C97.813652,67.920647 97.621277,68.839340 97.802185,70.117241 
	C98.375862,70.766052 98.649246,70.942688 98.995613,71.006355 
	C100.082924,72.965248 101.170235,74.924133 102.615524,77.201508 
	C102.997452,78.040367 103.021408,78.560753 103.011490,79.315338 
	C102.977608,79.549530 102.928566,80.020256 102.625061,80.182205 
	C101.846992,81.810837 101.372437,83.277519 100.906143,84.835411 
	C100.914413,84.926620 101.025337,85.072380 101.025337,85.072380 
z"/>
<path fill="#FEFBE5" opacity="1.000000" stroke="none" 
	d="
M91.036880,60.843472 
	C92.989395,61.278942 94.941910,61.714413 96.545410,62.628567 
	C90.936974,63.452374 85.674606,63.759857 80.420410,64.171616 
	C79.245857,64.263664 78.099976,64.721527 76.630219,64.864151 
	C75.223099,64.477600 74.126663,64.237862 73.030228,63.998131 
	C70.389229,61.171051 68.029251,58.230488 69.227295,53.533958 
	C69.651894,53.076969 69.823990,53.041164 69.997971,53.002678 
	C69.999840,53.000000 69.994934,53.003761 70.054169,53.313461 
	C71.039062,54.460575 71.964714,55.297989 72.939514,56.532238 
	C73.626884,57.615421 74.193153,58.804626 74.914795,58.907879 
	C80.271477,59.674309 85.659027,60.225021 91.036880,60.843472 
z"/>
<path fill="#FFFDE6" opacity="1.000000" stroke="none" 
	d="
M73.021072,64.402176 
	C74.126663,64.237862 75.223099,64.477600 76.994614,65.018127 
	C79.306190,65.866898 80.919075,66.785072 82.583771,66.891335 
	C87.038811,67.175705 91.516060,67.111908 95.984489,67.186447 
	C95.112579,67.921089 94.240669,68.655739 92.774765,69.683029 
	C87.830437,72.337936 81.579475,68.713745 78.280914,74.388748 
	C77.481262,73.244354 76.559494,72.164787 75.909691,70.940842 
	C74.850372,68.945557 73.968597,66.856003 73.021072,64.402176 
z"/>
<path fill="#CDAC6B" opacity="1.000000" stroke="none" 
	d="
M77.004623,114.019455 
	C77.004623,114.019455 77.492516,113.997978 78.071358,113.995941 
	C79.095894,113.987282 79.541588,113.980659 80.116302,114.275696 
	C81.194153,118.651222 77.814056,119.492783 75.405197,121.059547 
	C74.236855,120.873947 72.866165,120.201302 71.935570,120.587936 
	C68.118462,122.173851 64.435402,124.082420 60.335052,125.929474 
	C59.342091,125.567795 58.717091,125.148880 58.409412,124.338341 
	C59.815269,122.629242 60.903809,121.311760 61.992348,119.994278 
	C61.992344,119.994278 62.000000,120.000305 62.257858,119.924408 
	C62.772976,119.606483 63.030235,119.364464 63.287491,119.122444 
	C63.287491,119.122444 63.662907,119.042816 64.072823,118.908501 
	C64.805855,118.627602 65.015938,118.383644 65.112984,118.042313 
	C65.583092,117.822182 66.053207,117.602051 66.838837,117.644348 
	C69.905441,119.796257 73.010719,118.570793 77.004623,114.019455 
M65.363907,120.341988 
	C65.110176,120.414780 64.856445,120.487579 64.602722,120.560379 
	C64.878983,120.841423 65.155251,121.122467 65.431503,121.403511 
	C65.511627,121.153267 65.591743,120.903023 65.363907,120.341988 
z"/>
<path fill="#D0B278" opacity="1.000000" stroke="none" 
	d="
M63.747276,24.119352 
	C64.734398,24.880304 66.111046,26.094460 65.881645,26.691406 
	C64.208321,31.045624 67.776428,32.814270 69.796509,35.728714 
	C69.927483,36.361355 70.071136,36.611687 70.214783,36.862019 
	C70.214783,36.862019 70.243202,36.786713 70.102097,37.048065 
	C69.646790,37.827667 69.332581,38.345913 68.676979,38.852509 
	C67.239044,38.568340 66.142502,38.295822 64.845322,37.883018 
	C64.078270,36.821648 63.511864,35.900570 62.945461,34.979488 
	C62.937862,34.802231 62.930264,34.624977 63.216610,34.255608 
	C63.702751,33.700542 63.894947,33.337593 64.087143,32.974644 
	C64.047157,32.537579 64.007164,32.100517 63.950203,31.047253 
	C63.680592,29.926170 63.427948,29.421291 63.175304,28.916414 
	C63.247948,27.373209 63.320587,25.830004 63.747276,24.119352 
z"/>
<path fill="#CFA75A" opacity="1.000000" stroke="none" 
	d="
M76.868210,113.700577 
	C73.010719,118.570793 69.905441,119.796257 67.092789,117.590721 
	C69.729721,115.159607 72.428230,113.044556 75.452774,110.851166 
	C76.096466,111.642448 76.414124,112.512077 76.868210,113.700577 
z"/>
<path fill="#FCEDC3" opacity="1.000000" stroke="none" 
	d="
M91.148529,84.298996 
	C92.569054,82.485237 94.184174,80.954758 96.213142,79.032112 
	C96.908318,81.056885 97.401794,82.494209 97.924179,84.254684 
	C97.201851,86.321449 96.450607,88.065079 95.360191,89.921066 
	C93.795044,88.216370 92.569077,86.399315 91.148529,84.298996 
z"/>
<path fill="#D5B372" opacity="1.000000" stroke="none" 
	d="
M78.281219,74.451202 
	C81.579475,68.713745 87.830437,72.337936 92.599342,69.912720 
	C92.620399,70.604637 92.390381,71.814980 91.795677,72.033684 
	C89.512764,72.873222 87.112907,73.394722 84.076797,74.096146 
	C82.600182,74.416840 81.803444,74.676277 80.658951,74.863564 
	C79.607613,74.730507 78.904022,74.669601 78.200439,74.608696 
	C78.200439,74.608696 78.281517,74.513664 78.281219,74.451202 
z"/>
<path fill="#FDF8E1" opacity="1.000000" stroke="none" 
	d="
M61.615887,119.999176 
	C60.903809,121.311760 59.815269,122.629242 58.372425,124.030212 
	C55.918335,124.701454 53.818550,125.289207 51.334969,125.812523 
	C54.380585,123.833405 57.810005,121.918739 61.615887,119.999176 
z"/>
<path fill="#FDF6D8" opacity="1.000000" stroke="none" 
	d="
M81.006714,74.935715 
	C81.803444,74.676277 82.600182,74.416840 83.711243,74.221512 
	C85.642174,75.260674 87.258781,76.235733 89.387794,77.519867 
	C87.561424,78.367462 86.076820,79.056450 84.299316,79.871628 
	C83.898399,79.677376 83.704788,79.421799 83.162064,78.789642 
	C82.267960,77.210693 81.637337,76.073204 81.006714,74.935715 
z"/>
<path fill="#D3B883" opacity="1.000000" stroke="none" 
	d="
M69.996094,53.005356 
	C69.823990,53.041164 69.651894,53.076969 69.215919,53.118092 
	C68.952034,53.123405 68.964943,53.048763 68.863007,52.806484 
	C68.591133,52.262196 68.338150,52.068817 68.002121,51.984074 
	C67.588509,49.862202 67.174904,47.740334 67.166733,45.281147 
	C68.056953,44.952354 68.541740,44.960880 69.040527,45.314892 
	C69.708420,47.078991 70.362297,48.497604 70.738998,50.122192 
	C70.306587,51.220566 70.151337,52.112961 69.996094,53.005356 
z"/>
<path fill="#CCAC6C" opacity="1.000000" stroke="none" 
	d="
M69.026520,44.969406 
	C68.541740,44.960880 68.056953,44.952354 67.341583,44.929756 
	C65.726303,42.548607 64.341621,40.181530 62.960430,37.110744 
	C62.937023,36.186058 62.910122,35.965080 62.883217,35.744102 
	C62.883217,35.744102 62.809643,35.353321 62.877552,35.166405 
	C63.511864,35.900570 64.078270,36.821648 64.890671,38.218796 
	C66.505020,40.701633 67.873360,42.708408 69.187874,44.778709 
	C69.134041,44.842236 69.026520,44.969402 69.026520,44.969406 
z"/>
<path fill="#FFFDE6" opacity="1.000000" stroke="none" 
	d="
M80.658951,74.863564 
	C81.637337,76.073204 82.267960,77.210693 82.943161,78.681976 
	C81.364311,77.801270 79.740875,76.586777 78.158936,74.990486 
	C78.904022,74.669601 79.607613,74.730507 80.658951,74.863564 
z"/>
<path fill="#FCEDC3" opacity="1.000000" stroke="none" 
	d="
M88.710693,97.048523 
	C88.300232,98.036552 87.540916,99.039116 86.443329,100.078003 
	C86.857315,99.097229 87.609573,98.080139 88.710693,97.048523 
z"/>
<path fill="#FDF8E1" opacity="1.000000" stroke="none" 
	d="
M49.646225,126.007675 
	C48.580494,126.633171 47.122688,127.247932 45.314240,127.843506 
	C46.393784,127.215195 47.823967,126.606071 49.646225,126.007675 
z"/>
<path fill="#FDF8E1" opacity="1.000000" stroke="none" 
	d="
M38.898792,128.905640 
	C37.951584,129.472641 36.836189,129.773926 35.361229,130.049774 
	C36.244644,129.562851 37.487625,129.101379 38.898792,128.905640 
z"/>
<path fill="#CFA75A" opacity="1.000000" stroke="none" 
	d="
M78.669693,108.043991 
	C78.134964,108.868317 77.296204,109.799408 76.115440,110.788498 
	C76.637512,109.947906 77.501587,109.049324 78.669693,108.043991 
z"/>
<path fill="#FCEDC3" opacity="1.000000" stroke="none" 
	d="
M93.616379,91.037125 
	C93.524536,91.922447 93.088829,92.871025 92.349182,93.950378 
	C92.454330,93.087555 92.863419,92.093971 93.616379,91.037125 
z"/>
<path fill="#FFFCEA" opacity="1.000000" stroke="none" 
	d="
M62.924740,29.070250 
	C63.427948,29.421291 63.680592,29.926170 63.895645,30.722309 
	C63.463428,30.417074 63.068802,29.820580 62.924740,29.070250 
z"/>
<path fill="#FFFCEA" opacity="1.000000" stroke="none" 
	d="
M63.857841,33.072655 
	C63.894947,33.337593 63.702751,33.700542 63.252937,33.991966 
	C63.123459,33.600483 63.334530,33.350559 63.857841,33.072655 
z"/>
<path fill="#FDF8E1" opacity="1.000000" stroke="none" 
	d="
M43.064999,128.169495 
	C43.051067,128.362457 42.781231,128.559097 42.256599,128.756592 
	C42.270901,128.562683 42.539997,128.367935 43.064999,128.169495 
z"/>
<path fill="#D0B278" opacity="1.000000" stroke="none" 
	d="
M62.776096,35.902168 
	C62.910122,35.965080 62.937023,36.186058 62.963596,36.741203 
	C62.865170,36.736988 62.767071,36.398609 62.776096,35.902168 
z"/>
<path fill="#FEFBE5" opacity="1.000000" stroke="none" 
	d="
M68.089920,52.204857 
	C68.338150,52.068817 68.591133,52.262196 68.825760,52.799568 
	C68.590309,52.905041 68.352737,52.701942 68.089920,52.204857 
z"/>
<path fill="#FCEDC3" opacity="1.000000" stroke="none" 
	d="
M85.868851,100.163696 
	C86.121712,100.089066 86.098747,100.556580 85.819679,100.807922 
	C85.540611,101.059265 85.070885,101.106270 85.070892,101.106270 
	C85.252586,100.816963 85.434288,100.527649 85.868851,100.163696 
z"/>
<path fill="#CFA75A" opacity="1.000000" stroke="none" 
	d="
M85.017075,101.322235 
	C85.070885,101.106270 85.540611,101.059265 85.775711,101.037796 
	C85.812027,101.280037 85.613251,101.543755 85.178154,101.895142 
	C84.941833,101.982811 84.963272,101.538193 85.017075,101.322235 
z"/>
<path fill="#CFA75A" opacity="1.000000" stroke="none" 
	d="
M80.753662,106.067062 
	C80.812119,106.259918 80.627159,106.534096 80.205872,106.899597 
	C80.149780,106.710068 80.330009,106.429230 80.753662,106.067062 
z"/>
<path fill="#FDF8E1" opacity="1.000000" stroke="none" 
	d="
M64.879501,118.102531 
	C65.015938,118.383644 64.805855,118.627602 64.238144,118.811089 
	C64.129150,118.541626 64.346649,118.313210 64.879501,118.102531 
z"/>
<path fill="#FDF8E1" opacity="1.000000" stroke="none" 
	d="
M63.012856,119.163857 
	C63.030235,119.364464 62.772976,119.606483 62.255775,119.920502 
	C62.243294,119.730087 62.490757,119.467674 63.012856,119.163857 
z"/>
<path fill="#FEFAE3" opacity="1.000000" stroke="none" 
	d="
M84.038857,122.135460 
	C83.998505,123.274200 84.430153,124.936569 83.841583,125.467110 
	C79.878967,129.039017 75.699905,132.370804 71.058052,135.948532 
	C70.221466,136.250916 70.027611,136.478638 69.620331,136.870087 
	C68.524162,137.340729 67.751266,137.741165 66.978378,138.141602 
	C61.911518,139.725937 56.844658,141.310272 51.375351,142.837097 
	C49.353882,139.287018 51.786495,138.150330 54.810089,137.369720 
	C62.262009,138.216125 66.811043,133.421616 72.306686,130.070221 
	C72.749809,129.671722 72.940010,129.376511 73.105377,129.114258 
	C73.080544,129.147247 73.153999,129.184937 73.454483,129.144348 
	C74.561684,128.521912 75.368408,127.940071 76.446457,127.265686 
	C77.157608,126.827850 77.597450,126.482574 78.302948,126.032654 
	C78.828094,125.652756 79.087585,125.377510 79.523552,125.071655 
	C79.700035,125.041046 79.994865,124.837547 80.285843,124.730988 
	C81.730827,123.794769 82.884842,122.965118 84.038857,122.135460 
z"/>
<path fill="#CFA960" opacity="1.000000" stroke="none" 
	d="
M72.053772,130.173492 
	C66.811043,133.421616 62.262009,138.216125 55.155987,137.337463 
	C58.262062,134.993408 61.533611,132.991364 65.473999,130.837891 
	C66.405617,130.070084 66.668388,129.453751 66.931152,128.837402 
	C67.758385,127.960373 68.585625,127.083344 69.920792,126.003326 
	C70.708282,125.609947 70.901237,125.354225 71.007591,125.033165 
	C72.252602,123.780067 73.497612,122.526962 75.073914,121.166702 
	C77.814056,119.492783 81.194153,118.651222 80.120964,113.949471 
	C79.997635,112.886101 79.998665,112.450615 79.999695,112.015121 
	C82.058304,111.979713 84.116920,111.944298 86.520638,111.929245 
	C84.669724,114.729141 82.473701,117.508682 80.147331,120.989990 
	C80.009605,122.740349 80.002235,123.788948 79.994865,124.837547 
	C79.994865,124.837547 79.700035,125.041046 79.230080,125.136124 
	C78.519180,125.533226 78.278236,125.835258 78.037292,126.137299 
	C77.597450,126.482574 77.157608,126.827850 76.271133,126.970535 
	C74.934334,127.573608 74.044167,128.379272 73.153999,129.184937 
	C73.153999,129.184937 73.080544,129.147247 72.848679,129.208237 
	C72.429138,129.570648 72.241455,129.872070 72.053772,130.173492 
z"/>
<path fill="#CDAC6B" opacity="1.000000" stroke="none" 
	d="
M66.655128,129.001740 
	C66.668388,129.453751 66.405617,130.070084 65.794495,130.769318 
	C65.757118,130.290146 66.068108,129.728104 66.655128,129.001740 
z"/>
<path fill="#CDAC6B" opacity="1.000000" stroke="none" 
	d="
M70.766296,125.104034 
	C70.901237,125.354225 70.708282,125.609947 70.205154,125.897934 
	C70.162720,125.721992 70.343864,125.448441 70.766296,125.104034 
z"/>
<path fill="#CDAA68" opacity="1.000000" stroke="none" 
	d="
M66.986275,138.494904 
	C67.751266,137.741165 68.524162,137.340729 69.528206,137.195862 
	C69.507286,138.301971 69.255211,139.152496 69.003143,140.003036 
	C68.512573,140.262268 68.022003,140.521500 67.270142,140.874237 
	C67.003952,140.261246 66.999062,139.554718 66.986275,138.494904 
z"/>
<path fill="#FEFAE4" opacity="1.000000" stroke="none" 
	d="
M69.997971,53.002678 
	C70.151337,52.112961 70.306587,51.220566 71.157242,50.189636 
	C77.606277,51.558887 83.359901,53.066669 89.113525,54.574455 
	C90.641869,55.466888 92.170212,56.359322 93.366852,57.584938 
	C86.725861,56.917202 80.416573,55.916283 73.905487,54.632286 
	C72.467430,53.900723 71.231186,53.452240 69.994934,53.003761 
	C69.994934,53.003761 69.999840,53.000000 69.997971,53.002678 
z"/>
<path fill="#D1B06E" opacity="1.000000" stroke="none" 
	d="
M101.547836,88.140755 
	C101.094551,87.400848 101.058189,86.624939 101.023582,85.460709 
	C101.025337,85.072380 100.914413,84.926620 101.221596,84.784317 
	C102.326141,84.371017 103.123505,84.100029 103.953300,84.142509 
	C104.006630,84.665047 104.027519,84.874107 104.211166,85.345963 
	C105.172150,85.708603 105.970367,85.808456 107.065659,86.015976 
	C108.643333,86.057892 109.923935,85.992142 109.918121,85.992439 
	C109.225319,83.512474 108.610466,81.311523 107.995613,79.110580 
	C110.896049,80.571274 113.796478,82.031975 116.539276,83.882736 
	C115.244690,85.545708 114.107750,86.818626 112.844551,88.308014 
	C112.440659,88.706627 112.163033,88.888771 111.885406,89.070923 
	C108.578522,88.748871 105.271645,88.426811 101.547836,88.140755 
z"/>
<path fill="#CCAC6C" opacity="1.000000" stroke="none" 
	d="
M89.164528,54.281693 
	C83.359901,53.066669 77.606277,51.558887 71.434418,49.983658 
	C70.362297,48.497604 69.708420,47.078991 69.040527,45.314888 
	C69.026520,44.969402 69.134041,44.842236 69.523125,44.892441 
	C74.634453,46.841969 79.317276,48.849037 84.094872,50.597080 
	C86.644585,51.529980 87.718124,50.778656 86.100555,47.939476 
	C87.493240,48.161671 88.744270,48.592628 90.019211,49.320591 
	C90.370255,50.080517 90.697380,50.543438 91.024506,51.006363 
	C90.421516,52.000553 89.818520,52.994740 89.164528,54.281693 
z"/>
<path fill="#CFAB64" opacity="1.000000" stroke="none" 
	d="
M96.318138,67.125793 
	C91.516060,67.111908 87.038811,67.175705 82.583771,66.891335 
	C80.919075,66.785072 79.306190,65.866898 77.305290,65.164948 
	C78.099976,64.721527 79.245857,64.263664 80.420410,64.171616 
	C85.674606,63.759857 90.936974,63.452374 96.576790,63.020576 
	C97.963623,63.896481 98.970062,64.859055 100.206245,66.041374 
	C99.859970,66.246803 99.257538,66.604202 98.330566,66.981781 
	C97.554611,67.023018 97.103195,67.044090 96.318138,67.125793 
z"/>
<path fill="#CDAA68" opacity="1.000000" stroke="none" 
	d="
M74.107285,54.915359 
	C80.416573,55.916283 86.725861,56.917202 93.488800,57.897587 
	C93.004013,58.653687 92.065582,59.430325 91.082016,60.525215 
	C85.659027,60.225021 80.271477,59.674309 74.914795,58.907879 
	C74.193153,58.804626 73.626884,57.615421 73.083511,56.274719 
	C73.487999,55.385365 73.797638,55.150364 74.107285,54.915359 
z"/>
<path fill="#F9EEC6" opacity="1.000000" stroke="none" 
	d="
M123.708672,87.913177 
	C124.266068,88.198891 124.545113,88.405396 124.920593,89.166725 
	C125.007820,90.149170 124.998619,90.576775 124.989426,91.004387 
	C124.989426,91.004387 124.999550,91.001640 125.001442,90.995804 
	C123.930840,90.623863 122.858353,90.257759 121.564941,89.816238 
	C119.635872,96.504776 116.305099,90.868797 113.589142,90.274277 
	C115.147034,89.317871 116.584663,88.649925 118.017380,87.997322 
	C118.012459,88.012672 117.981369,88.021164 118.265671,87.876297 
	C118.701729,87.145401 118.853485,86.559372 119.006493,85.989197 
	C119.007744,86.005043 118.975975,86.003532 119.232239,86.092773 
	C119.662682,86.133125 119.836861,86.084236 120.011032,86.035355 
	C120.320351,86.167290 120.629669,86.299232 121.065277,86.860092 
	C121.453827,87.181541 121.716080,87.074066 121.978333,86.966583 
	C122.462326,87.255714 122.946327,87.544838 123.708672,87.913177 
z"/>
<path fill="#CCAC6D" opacity="1.000000" stroke="none" 
	d="
M104.048409,85.083160 
	C104.027519,84.874107 104.006630,84.665047 103.949951,83.794739 
	C103.585640,82.095749 103.257111,81.057999 102.928574,80.020256 
	C102.928566,80.020256 102.977608,79.549530 103.250534,79.161285 
	C103.966606,78.176346 104.409737,77.579643 104.852867,76.982933 
	C105.719177,77.661049 106.585487,78.339165 107.723709,79.063934 
	C108.610466,81.311523 109.225319,83.512474 109.918121,85.992439 
	C109.923935,85.992142 108.643333,86.057892 107.010178,85.759430 
	C105.787888,85.291191 104.918152,85.187172 104.048409,85.083160 
z"/>
<path fill="#CFA95E" opacity="1.000000" stroke="none" 
	d="
M89.995300,49.023586 
	C88.744270,48.592628 87.493240,48.161671 85.824738,47.857727 
	C84.935043,47.684528 84.462822,47.384312 84.039528,46.734215 
	C85.250023,44.903664 86.411598,43.422997 87.573181,41.942329 
	C87.573181,41.942329 87.596512,41.860855 87.624512,41.831825 
	C87.734543,42.003025 87.816582,42.203262 87.951843,43.052505 
	C88.094986,44.575150 88.184914,45.448792 88.356171,47.112591 
	C89.292488,45.917751 89.674507,45.430264 90.056519,44.942772 
	C90.623955,45.449871 91.191383,45.956974 91.776230,46.982140 
	C91.535164,47.984364 91.276680,48.468517 91.018196,48.952671 
	C91.018196,48.952671 90.988594,48.984200 90.731133,48.998642 
	C90.473671,49.013084 89.995300,49.023586 89.995300,49.023586 
z"/>
<path fill="#FBF2CD" opacity="1.000000" stroke="none" 
	d="
M112.970810,88.091537 
	C114.107750,86.818626 115.244690,85.545708 116.680153,84.147507 
	C117.605659,84.215096 118.232651,84.407982 118.905945,85.051041 
	C118.960167,85.668655 118.968071,85.836098 118.975975,86.003532 
	C118.975975,86.003532 119.007744,86.005043 118.713013,86.128464 
	C118.272636,86.841652 118.126999,87.431404 117.981369,88.021164 
	C117.981369,88.021164 118.012459,88.012672 117.602341,87.908745 
	C115.785080,87.900391 114.377945,87.995964 112.970810,88.091537 
z"/>
<path fill="#FCEDC3" opacity="1.000000" stroke="none" 
	d="
M104.873833,76.684456 
	C104.409737,77.579643 103.966606,78.176346 103.284416,78.927094 
	C103.021408,78.560753 102.997452,78.040367 102.947540,77.128967 
	C103.448143,76.067741 103.974709,75.397530 104.501266,74.727310 
	C104.632446,75.280197 104.763626,75.833092 104.873833,76.684456 
z"/>
<path fill="#CEAC69" opacity="1.000000" stroke="none" 
	d="
M89.915894,44.691185 
	C89.674507,45.430264 89.292488,45.917751 88.356171,47.112591 
	C88.184914,45.448792 88.094986,44.575150 88.003906,43.372890 
	C88.593590,43.509380 89.184425,43.974487 89.915894,44.691185 
z"/>
<path fill="#D0B278" opacity="1.000000" stroke="none" 
	d="
M99.265968,70.986740 
	C98.649246,70.942688 98.375862,70.766052 98.079849,70.246063 
	C98.867157,69.920250 99.750092,69.824821 100.633011,69.729385 
	C100.267448,70.141968 99.901886,70.554550 99.265968,70.986740 
z"/>
<path fill="#CEAC69" opacity="1.000000" stroke="none" 
	d="
M91.312286,48.935799 
	C91.276680,48.468517 91.535164,47.984364 91.899681,47.245331 
	C91.872597,47.633278 91.739479,48.276104 91.312286,48.935799 
z"/>
<path fill="#CEAC69" opacity="1.000000" stroke="none" 
	d="
M90.019211,49.320591 
	C89.995300,49.023586 90.473671,49.013084 90.712234,49.009148 
	C90.968864,49.449722 90.986931,49.894230 91.014755,50.672554 
	C90.697380,50.543438 90.370255,50.080517 90.019211,49.320591 
z"/>
<path fill="#C7AD78" opacity="1.000000" stroke="none" 
	d="
M119.232239,86.092773 
	C118.968071,85.836098 118.960167,85.668655 119.007233,85.256058 
	C119.378929,85.119698 119.629951,85.313568 119.913155,85.813927 
	C119.836861,86.084236 119.662682,86.133125 119.232239,86.092773 
z"/>
<path fill="#FBF2CD" opacity="1.000000" stroke="none" 
	d="
M132.111832,85.248489 
	C132.307800,85.189018 132.466599,85.369232 132.569305,85.577156 
	C132.595276,85.629738 132.442169,85.770767 132.199219,85.941040 
	C132.036011,85.840103 132.044952,85.669281 132.111832,85.248489 
z"/>
<path fill="#D0B278" opacity="1.000000" stroke="none" 
	d="
M121.786484,86.941780 
	C121.716080,87.074066 121.453827,87.181541 121.200798,87.082001 
	C121.210030,86.874977 121.594627,86.916977 121.786484,86.941780 
z"/>
<path fill="#C7AD78" opacity="1.000000" stroke="none" 
	d="
M112.844551,88.308014 
	C114.377945,87.995964 115.785080,87.900391 117.607254,87.893394 
	C116.584663,88.649925 115.147034,89.317871 113.348694,90.016861 
	C112.713615,89.860657 112.439240,89.673424 112.025131,89.278549 
	C112.163033,88.888771 112.440659,88.706627 112.844551,88.308014 
z"/>
<path fill="#CDAA66" opacity="1.000000" stroke="none" 
	d="
M80.285843,124.730988 
	C80.002235,123.788948 80.009605,122.740349 80.029739,121.295723 
	C81.109177,120.588776 82.175850,120.277847 83.558060,119.829605 
	C83.916801,120.235306 83.959999,120.778328 84.021027,121.728409 
	C82.884842,122.965118 81.730827,123.794769 80.285843,124.730988 
z"/>
<path fill="#D0A554" opacity="1.000000" stroke="none" 
	d="
M69.261780,140.096146 
	C69.255211,139.152496 69.507286,138.301971 69.851486,137.125641 
	C70.027611,136.478638 70.221466,136.250916 70.755760,136.102295 
	C71.164604,136.621017 71.342850,137.154160 71.760834,137.846069 
	C71.173866,138.733002 70.347145,139.461136 69.261780,140.096146 
z"/>
<path fill="#FEFCF0" opacity="1.000000" stroke="none" 
	d="
M125.285645,90.958611 
	C124.998619,90.576775 125.007820,90.149170 125.038414,89.402885 
	C125.566963,89.300011 126.074112,89.515808 126.581268,89.731598 
	C126.248131,90.125343 125.914993,90.519089 125.285645,90.958611 
z"/>
<path fill="#CEAC69" opacity="1.000000" stroke="none" 
	d="
M87.595062,41.947212 
	C86.411598,43.422997 85.250023,44.903664 83.694519,46.670769 
	C78.539848,44.259525 73.779114,41.561844 69.018379,38.864162 
	C69.332581,38.345913 69.646790,37.827667 70.141983,37.053459 
	C73.918030,38.728119 77.457146,40.778927 81.150635,42.498055 
	C81.989693,42.888592 83.363747,42.129688 84.799370,41.594986 
	C85.940727,41.496132 86.774277,41.702145 87.607819,41.908157 
	C87.607819,41.908157 87.616943,41.952099 87.595062,41.947212 
z"/>
<path fill="#CDAA68" opacity="1.000000" stroke="none" 
	d="
M78.946381,37.146526 
	C75.394798,34.116440 71.843208,31.086353 68.130470,27.918776 
	C68.112282,27.953138 68.511398,27.199118 69.269409,26.133011 
	C70.084915,25.813406 70.541534,25.805887 70.998161,25.798370 
	C74.232903,28.669598 77.467651,31.540827 80.547318,34.744278 
	C79.910286,35.766510 79.428329,36.456520 78.946381,37.146526 
z"/>
<path fill="#CFA95E" opacity="1.000000" stroke="none" 
	d="
M79.042358,37.357693 
	C79.428329,36.456520 79.910286,35.766510 80.733566,35.023483 
	C83.253906,36.469532 85.494659,37.890350 87.566231,39.525517 
	C88.052734,39.909527 87.967598,41.017735 87.876633,41.850464 
	C86.774277,41.702145 85.940727,41.496132 84.678360,41.305794 
	C83.261024,40.709087 82.272499,40.096703 81.023415,38.999779 
	C80.541595,38.251568 80.262077,38.086582 79.924286,38.020287 
	C79.595619,37.985886 79.333641,37.835411 79.042358,37.357693 
z"/>
<path fill="#FEFBE7" opacity="1.000000" stroke="none" 
	d="
M70.951988,25.524189 
	C70.541534,25.805887 70.084915,25.813406 69.285919,25.794590 
	C69.597641,25.595507 70.251732,25.422756 70.951988,25.524189 
z"/>
<path fill="#CDAA68" opacity="1.000000" stroke="none" 
	d="
M80.032570,38.250942 
	C80.262077,38.086582 80.541595,38.251568 80.887115,38.728455 
	C80.721207,38.788307 80.431030,38.634953 80.032570,38.250942 
z"/>
<path fill="#CEAC69" opacity="1.000000" stroke="none" 
	d="
M70.313156,36.622269 
	C70.071136,36.611687 69.927483,36.361355 69.979019,36.016388 
	C70.253319,36.075348 70.332420,36.228935 70.313156,36.622269 
z"/>
<path fill="#CFA75A" opacity="1.000000" stroke="none" 
	d="
M79.809334,111.775070 
	C79.998665,112.450615 79.997635,112.886101 79.991943,113.647812 
	C79.541588,113.980659 79.095894,113.987282 78.315430,113.988663 
	C78.526764,113.167282 79.072861,112.351143 79.809334,111.775070 
z"/>
<path fill="#FCEDC3" opacity="1.000000" stroke="none" 
	d="
M102.625061,80.182205 
	C103.257111,81.057999 103.585640,82.095749 103.917526,83.481262 
	C103.123505,84.100029 102.326141,84.371017 101.213333,84.693100 
	C101.372437,83.277519 101.846992,81.810837 102.625061,80.182205 
z"/>
<path fill="#D3B883" opacity="1.000000" stroke="none" 
	d="
M73.905487,54.632282 
	C73.797638,55.150364 73.487999,55.385365 73.034363,55.877884 
	C71.964714,55.297989 71.039062,54.460575 70.054169,53.313461 
	C71.231186,53.452240 72.467430,53.900723 73.905487,54.632282 
z"/>
<path fill="#CFA75A" opacity="1.000000" stroke="none" 
	d="
M65.517883,120.497383 
	C65.591743,120.903023 65.511627,121.153267 65.431503,121.403511 
	C65.155251,121.122467 64.878983,120.841423 64.602722,120.560379 
	C64.856445,120.487579 65.110176,120.414780 65.517883,120.497383 
z"/>
<path fill="#FEFBEB" opacity="1.000000" stroke="none" 
	d="
M68.676979,38.852509 
	C73.779114,41.561844 78.539848,44.259525 83.645599,47.020653 
	C84.462822,47.384312 84.935043,47.684528 85.683083,48.066490 
	C87.718124,50.778656 86.644585,51.529980 84.094872,50.597080 
	C79.317276,48.849037 74.634453,46.841969 69.576958,44.828911 
	C67.873360,42.708408 66.505020,40.701633 65.091324,38.359081 
	C66.142502,38.295822 67.239044,38.568340 68.676979,38.852509 
z"/>
<path fill="#CDAA66" opacity="1.000000" stroke="none" 
	d="
M73.454483,129.144348 
	C74.044167,128.379272 74.934334,127.573608 75.999817,127.063095 
	C75.368408,127.940071 74.561684,128.521912 73.454483,129.144348 
z"/>
<path fill="#CDAA66" opacity="1.000000" stroke="none" 
	d="
M72.306686,130.070221 
	C72.241455,129.872070 72.429138,129.570648 72.873520,129.175262 
	C72.940010,129.376511 72.749809,129.671722 72.306686,130.070221 
z"/>
<path fill="#CDAA66" opacity="1.000000" stroke="none" 
	d="
M78.302948,126.032654 
	C78.278236,125.835258 78.519180,125.533226 79.053596,125.166725 
	C79.087585,125.377510 78.828094,125.652756 78.302948,126.032654 
z"/>
<path fill="#F3E1B2" opacity="1.000000" stroke="none" 
	d="
M104.211166,85.345963 
	C104.918152,85.187172 105.787888,85.291191 106.713112,85.651756 
	C105.970367,85.808456 105.172150,85.708603 104.211166,85.345963 
z"/>
<path fill="#C7AD78" opacity="1.000000" stroke="none" 
	d="
M118.265671,87.876297 
	C118.126999,87.431404 118.272636,86.841652 118.711761,86.112617 
	C118.853485,86.559372 118.701729,87.145401 118.265671,87.876297 
z"/>
</svg>